<svg height="200" viewBox="0 0 200 200" width="200" xmlns="http://www.w3.org/2000/svg">
<rect fill="rgba(255, 255, 255, 1)" height="100%" width="100%"/>
<rect fill="rgba(0, 0, 0, 1)" height="17" width="17" x="6" y="6"/>
<rect fill="rgba(0, 0, 0, 1)" height="17" width="17" x="23" y="6"/>
<rect fill="rgba(0, 0, 0, 1)" height="17" width="17" x="40" y="6"/>
<rect fill="rgba(0, 0, 0, 1)" height="17" width="17" x="57" y="6"/>
<rect fill="rgba(0, 0, 0, 1)" height="17" width="17" x="74" y="6"/>
<rect fill="rgba(0, 0, 0, 1)" height="17" width="17" x="91" y="6"/>
<rect fill="rgba(0, 0, 0, 1)" height="17" width="17" x="108" y="6"/>
<rect fill="rgba(0, 0, 0, 1)" height="17" width="17" x="142" y="6"/>
<rect fill="rgba(0, 0, 0, 1)" height="17" width="17" x="176" y="6"/>
<rect fill="rgba(0, 0, 0, 1)" height="17" width="17" x="6" y="23"/>
<rect fill="rgba(0, 0, 0, 1)" height="17" width="17" x="108" y="23"/>
<rect fill="rgba(0, 0, 0, 1)" height="17" width="17" x="142" y="23"/>
<rect fill="rgba(0, 0, 0, 1)" height="17" width="17" x="6" y="40"/>
<rect fill="rgba(0, 0, 0, 1)" height="17" width="17" x="40" y="40"/>
<rect fill="rgba(0, 0, 0, 1)" height="17" width="17" x="57" y="40"/>
<rect fill="rgba(0, 0, 0, 1)" height="17" width="17" x="74" y="40"/>
<rect fill="rgba(0, 0, 0, 1)" height="17" width="17" x="108" y="40"/>
<rect fill="rgba(0, 0, 0, 1)" height="17" width="17" x="159" y="40"/>
<rect fill="rgba(0, 0, 0, 1)" height="17" width="17" x="176" y="40"/>
<rect fill="rgba(0, 0, 0, 1)" height="17" width="17" x="6" y="57"/>
<rect fill="rgba(0, 0, 0, 1)" height="17" width="17" x="40" y="57"/>
<rect fill="rgba(0, 0, 0, 1)" height="17" width="17" x="57" y="57"/>
<rect fill="rgba(0, 0, 0, 1)" height="17" width="17" x="74" y="57"/>
<rect fill="rgba(0, 0, 0, 1)" height="17" width="17" x="108" y="57"/>
<rect fill="rgba(0, 0, 0, 1)" height="17" width="17" x="142" y="57"/>
<rect fill="rgba(0, 0, 0, 1)" height="17" width="17" x="6" y="74"/>
<rect fill="rgba(0, 0, 0, 1)" height="17" width="17" x="40" y="74"/>
<rect fill="rgba(0, 0, 0, 1)" height="17" width="17" x="57" y="74"/>
<rect fill="rgba(0, 0, 0, 1)" height="17" width="17" x="74" y="74"/>
<rect fill="rgba(0, 0, 0, 1)" height="17" width="17" x="108" y="74"/>
<rect fill="rgba(0, 0, 0, 1)" height="17" width="17" x="159" y="74"/>
<rect fill="rgba(0, 0, 0, 1)" height="17" width="17" x="176" y="74"/>
<rect fill="rgba(0, 0, 0, 1)" height="17" width="17" x="6" y="91"/>
<rect fill="rgba(0, 0, 0, 1)" height="17" width="17" x="108" y="91"/>
<rect fill="rgba(0, 0, 0, 1)" height="17" width="17" x="6" y="108"/>
<rect fill="rgba(0, 0, 0, 1)" height="17" width="17" x="23" y="108"/>
<rect fill="rgba(0, 0, 0, 1)" height="17" width="17" x="40" y="108"/>
<rect fill="rgba(0, 0, 0, 1)" height="17" width="17" x="57" y="108"/>
<rect fill="rgba(0, 0, 0, 1)" height="17" width="17" x="74" y="108"/>
<rect fill="rgba(0, 0, 0, 1)" height="17" width="17" x="91" y="108"/>
<rect fill="rgba(0, 0, 0, 1)" height="17" width="17" x="108" y="108"/>
<rect fill="rgba(0, 0, 0, 1)" height="17" width="17" x="159" y="108"/>
<rect fill="rgba(0, 0, 0, 1)" height="17" width="17" x="176" y="108"/>
<rect fill="rgba(0, 0, 0, 1)" height="17" width="17" x="142" y="125"/>
<rect fill="rgba(0, 0, 0, 1)" height="17" width="17" x="159" y="125"/>
<rect fill="rgba(0, 0, 0, 1)" height="17" width="17" x="176" y="125"/>
<rect fill="rgba(0, 0, 0, 1)" height="17" width="17" x="6" y="142"/>
<rect fill="rgba(0, 0, 0, 1)" height="17" width="17" x="159" y="142"/>
<rect fill="rgba(0, 0, 0, 1)" height="17" width="17" x="176" y="142"/>
<rect fill="rgba(0, 0, 0, 1)" height="17" width="17" x="23" y="159"/>
<rect fill="rgba(0, 0, 0, 1)" height="17" width="17" x="74" y="159"/>
<rect fill="rgba(0, 0, 0, 1)" height="17" width="17" x="108" y="159"/>
<rect fill="rgba(0, 0, 0, 1)" height="17" width="17" x="125" y="159"/>
<rect fill="rgba(0, 0, 0, 1)" height="17" width="17" x="142" y="159"/>
<rect fill="rgba(0, 0, 0, 1)" height="17" width="17" x="6" y="176"/>
<rect fill="rgba(0, 0, 0, 1)" height="17" width="17" x="40" y="176"/>
<rect fill="rgba(0, 0, 0, 1)" height="17" width="17" x="108" y="176"/>
<rect fill="rgba(0, 0, 0, 1)" height="17" width="17" x="176" y="176"/>
</svg>