<svg height="100" viewBox="0 0 100 100" width="100" xmlns="http://www.w3.org/2000/svg">
<rect fill="rgba(255, 255, 255, 1)" height="100%" width="100%"/>
<rect fill="rgba(0, 0, 0, 1)" height="2" width="2" x="13" y="13"/>
<rect fill="rgba(0, 0, 0, 1)" height="2" width="2" x="15" y="13"/>
<rect fill="rgba(0, 0, 0, 1)" height="2" width="2" x="17" y="13"/>
<rect fill="rgba(0, 0, 0, 1)" height="2" width="2" x="19" y="13"/>
<rect fill="rgba(0, 0, 0, 1)" height="2" width="2" x="21" y="13"/>
<rect fill="rgba(0, 0, 0, 1)" height="2" width="2" x="23" y="13"/>
<rect fill="rgba(0, 0, 0, 1)" height="2" width="2" x="25" y="13"/>
<rect fill="rgba(0, 0, 0, 1)" height="2" width="2" x="35" y="13"/>
<rect fill="rgba(0, 0, 0, 1)" height="2" width="2" x="41" y="13"/>
<rect fill="rgba(0, 0, 0, 1)" height="2" width="2" x="49" y="13"/>
<rect fill="rgba(0, 0, 0, 1)" height="2" width="2" x="53" y="13"/>
<rect fill="rgba(0, 0, 0, 1)" height="2" width="2" x="57" y="13"/>
<rect fill="rgba(0, 0, 0, 1)" height="2" width="2" x="63" y="13"/>
<rect fill="rgba(0, 0, 0, 1)" height="2" width="2" x="65" y="13"/>
<rect fill="rgba(0, 0, 0, 1)" height="2" width="2" x="69" y="13"/>
<rect fill="rgba(0, 0, 0, 1)" height="2" width="2" x="73" y="13"/>
<rect fill="rgba(0, 0, 0, 1)" height="2" width="2" x="75" y="13"/>
<rect fill="rgba(0, 0, 0, 1)" height="2" width="2" x="77" y="13"/>
<rect fill="rgba(0, 0, 0, 1)" height="2" width="2" x="79" y="13"/>
<rect fill="rgba(0, 0, 0, 1)" height="2" width="2" x="81" y="13"/>
<rect fill="rgba(0, 0, 0, 1)" height="2" width="2" x="83" y="13"/>
<rect fill="rgba(0, 0, 0, 1)" height="2" width="2" x="85" y="13"/>
<rect fill="rgba(0, 0, 0, 1)" height="2" width="2" x="13" y="15"/>
<rect fill="rgba(0, 0, 0, 1)" height="2" width="2" x="25" y="15"/>
<rect fill="rgba(0, 0, 0, 1)" height="2" width="2" x="29" y="15"/>
<rect fill="rgba(0, 0, 0, 1)" height="2" width="2" x="33" y="15"/>
<rect fill="rgba(0, 0, 0, 1)" height="2" width="2" x="41" y="15"/>
<rect fill="rgba(0, 0, 0, 1)" height="2" width="2" x="43" y="15"/>
<rect fill="rgba(0, 0, 0, 1)" height="2" width="2" x="45" y="15"/>
<rect fill="rgba(0, 0, 0, 1)" height="2" width="2" x="47" y="15"/>
<rect fill="rgba(0, 0, 0, 1)" height="2" width="2" x="51" y="15"/>
<rect fill="rgba(0, 0, 0, 1)" height="2" width="2" x="53" y="15"/>
<rect fill="rgba(0, 0, 0, 1)" height="2" width="2" x="55" y="15"/>
<rect fill="rgba(0, 0, 0, 1)" height="2" width="2" x="57" y="15"/>
<rect fill="rgba(0, 0, 0, 1)" height="2" width="2" x="61" y="15"/>
<rect fill="rgba(0, 0, 0, 1)" height="2" width="2" x="63" y="15"/>
<rect fill="rgba(0, 0, 0, 1)" height="2" width="2" x="65" y="15"/>
<rect fill="rgba(0, 0, 0, 1)" height="2" width="2" x="67" y="15"/>
<rect fill="rgba(0, 0, 0, 1)" height="2" width="2" x="73" y="15"/>
<rect fill="rgba(0, 0, 0, 1)" height="2" width="2" x="85" y="15"/>
<rect fill="rgba(0, 0, 0, 1)" height="2" width="2" x="13" y="17"/>
<rect fill="rgba(0, 0, 0, 1)" height="2" width="2" x="17" y="17"/>
<rect fill="rgba(0, 0, 0, 1)" height="2" width="2" x="19" y="17"/>
<rect fill="rgba(0, 0, 0, 1)" height="2" width="2" x="21" y="17"/>
<rect fill="rgba(0, 0, 0, 1)" height="2" width="2" x="25" y="17"/>
<rect fill="rgba(0, 0, 0, 1)" height="2" width="2" x="31" y="17"/>
<rect fill="rgba(0, 0, 0, 1)" height="2" width="2" x="33" y="17"/>
<rect fill="rgba(0, 0, 0, 1)" height="2" width="2" x="37" y="17"/>
<rect fill="rgba(0, 0, 0, 1)" height="2" width="2" x="39" y="17"/>
<rect fill="rgba(0, 0, 0, 1)" height="2" width="2" x="43" y="17"/>
<rect fill="rgba(0, 0, 0, 1)" height="2" width="2" x="47" y="17"/>
<rect fill="rgba(0, 0, 0, 1)" height="2" width="2" x="53" y="17"/>
<rect fill="rgba(0, 0, 0, 1)" height="2" width="2" x="55" y="17"/>
<rect fill="rgba(0, 0, 0, 1)" height="2" width="2" x="65" y="17"/>
<rect fill="rgba(0, 0, 0, 1)" height="2" width="2" x="73" y="17"/>
<rect fill="rgba(0, 0, 0, 1)" height="2" width="2" x="77" y="17"/>
<rect fill="rgba(0, 0, 0, 1)" height="2" width="2" x="79" y="17"/>
<rect fill="rgba(0, 0, 0, 1)" height="2" width="2" x="81" y="17"/>
<rect fill="rgba(0, 0, 0, 1)" height="2" width="2" x="85" y="17"/>
<rect fill="rgba(0, 0, 0, 1)" height="2" width="2" x="13" y="19"/>
<rect fill="rgba(0, 0, 0, 1)" height="2" width="2" x="17" y="19"/>
<rect fill="rgba(0, 0, 0, 1)" height="2" width="2" x="19" y="19"/>
<rect fill="rgba(0, 0, 0, 1)" height="2" width="2" x="21" y="19"/>
<rect fill="rgba(0, 0, 0, 1)" height="2" width="2" x="25" y="19"/>
<rect fill="rgba(0, 0, 0, 1)" height="2" width="2" x="31" y="19"/>
<rect fill="rgba(0, 0, 0, 1)" height="2" width="2" x="35" y="19"/>
<rect fill="rgba(0, 0, 0, 1)" height="2" width="2" x="39" y="19"/>
<rect fill="rgba(0, 0, 0, 1)" height="2" width="2" x="41" y="19"/>
<rect fill="rgba(0, 0, 0, 1)" height="2" width="2" x="43" y="19"/>
<rect fill="rgba(0, 0, 0, 1)" height="2" width="2" x="57" y="19"/>
<rect fill="rgba(0, 0, 0, 1)" height="2" width="2" x="73" y="19"/>
<rect fill="rgba(0, 0, 0, 1)" height="2" width="2" x="77" y="19"/>
<rect fill="rgba(0, 0, 0, 1)" height="2" width="2" x="79" y="19"/>
<rect fill="rgba(0, 0, 0, 1)" height="2" width="2" x="81" y="19"/>
<rect fill="rgba(0, 0, 0, 1)" height="2" width="2" x="85" y="19"/>
<rect fill="rgba(0, 0, 0, 1)" height="2" width="2" x="13" y="21"/>
<rect fill="rgba(0, 0, 0, 1)" height="2" width="2" x="17" y="21"/>
<rect fill="rgba(0, 0, 0, 1)" height="2" width="2" x="19" y="21"/>
<rect fill="rgba(0, 0, 0, 1)" height="2" width="2" x="21" y="21"/>
<rect fill="rgba(0, 0, 0, 1)" height="2" width="2" x="25" y="21"/>
<rect fill="rgba(0, 0, 0, 1)" height="2" width="2" x="31" y="21"/>
<rect fill="rgba(0, 0, 0, 1)" height="2" width="2" x="33" y="21"/>
<rect fill="rgba(0, 0, 0, 1)" height="2" width="2" x="35" y="21"/>
<rect fill="rgba(0, 0, 0, 1)" height="2" width="2" x="41" y="21"/>
<rect fill="rgba(0, 0, 0, 1)" height="2" width="2" x="43" y="21"/>
<rect fill="rgba(0, 0, 0, 1)" height="2" width="2" x="45" y="21"/>
<rect fill="rgba(0, 0, 0, 1)" height="2" width="2" x="47" y="21"/>
<rect fill="rgba(0, 0, 0, 1)" height="2" width="2" x="53" y="21"/>
<rect fill="rgba(0, 0, 0, 1)" height="2" width="2" x="57" y="21"/>
<rect fill="rgba(0, 0, 0, 1)" height="2" width="2" x="63" y="21"/>
<rect fill="rgba(0, 0, 0, 1)" height="2" width="2" x="73" y="21"/>
<rect fill="rgba(0, 0, 0, 1)" height="2" width="2" x="77" y="21"/>
<rect fill="rgba(0, 0, 0, 1)" height="2" width="2" x="79" y="21"/>
<rect fill="rgba(0, 0, 0, 1)" height="2" width="2" x="81" y="21"/>
<rect fill="rgba(0, 0, 0, 1)" height="2" width="2" x="85" y="21"/>
<rect fill="rgba(0, 0, 0, 1)" height="2" width="2" x="13" y="23"/>
<rect fill="rgba(0, 0, 0, 1)" height="2" width="2" x="25" y="23"/>
<rect fill="rgba(0, 0, 0, 1)" height="2" width="2" x="29" y="23"/>
<rect fill="rgba(0, 0, 0, 1)" height="2" width="2" x="31" y="23"/>
<rect fill="rgba(0, 0, 0, 1)" height="2" width="2" x="33" y="23"/>
<rect fill="rgba(0, 0, 0, 1)" height="2" width="2" x="41" y="23"/>
<rect fill="rgba(0, 0, 0, 1)" height="2" width="2" x="45" y="23"/>
<rect fill="rgba(0, 0, 0, 1)" height="2" width="2" x="51" y="23"/>
<rect fill="rgba(0, 0, 0, 1)" height="2" width="2" x="53" y="23"/>
<rect fill="rgba(0, 0, 0, 1)" height="2" width="2" x="55" y="23"/>
<rect fill="rgba(0, 0, 0, 1)" height="2" width="2" x="57" y="23"/>
<rect fill="rgba(0, 0, 0, 1)" height="2" width="2" x="61" y="23"/>
<rect fill="rgba(0, 0, 0, 1)" height="2" width="2" x="63" y="23"/>
<rect fill="rgba(0, 0, 0, 1)" height="2" width="2" x="65" y="23"/>
<rect fill="rgba(0, 0, 0, 1)" height="2" width="2" x="69" y="23"/>
<rect fill="rgba(0, 0, 0, 1)" height="2" width="2" x="73" y="23"/>
<rect fill="rgba(0, 0, 0, 1)" height="2" width="2" x="85" y="23"/>
<rect fill="rgba(0, 0, 0, 1)" height="2" width="2" x="13" y="25"/>
<rect fill="rgba(0, 0, 0, 1)" height="2" width="2" x="15" y="25"/>
<rect fill="rgba(0, 0, 0, 1)" height="2" width="2" x="17" y="25"/>
<rect fill="rgba(0, 0, 0, 1)" height="2" width="2" x="19" y="25"/>
<rect fill="rgba(0, 0, 0, 1)" height="2" width="2" x="21" y="25"/>
<rect fill="rgba(0, 0, 0, 1)" height="2" width="2" x="23" y="25"/>
<rect fill="rgba(0, 0, 0, 1)" height="2" width="2" x="25" y="25"/>
<rect fill="rgba(0, 0, 0, 1)" height="2" width="2" x="29" y="25"/>
<rect fill="rgba(0, 0, 0, 1)" height="2" width="2" x="33" y="25"/>
<rect fill="rgba(0, 0, 0, 1)" height="2" width="2" x="37" y="25"/>
<rect fill="rgba(0, 0, 0, 1)" height="2" width="2" x="41" y="25"/>
<rect fill="rgba(0, 0, 0, 1)" height="2" width="2" x="45" y="25"/>
<rect fill="rgba(0, 0, 0, 1)" height="2" width="2" x="49" y="25"/>
<rect fill="rgba(0, 0, 0, 1)" height="2" width="2" x="53" y="25"/>
<rect fill="rgba(0, 0, 0, 1)" height="2" width="2" x="57" y="25"/>
<rect fill="rgba(0, 0, 0, 1)" height="2" width="2" x="61" y="25"/>
<rect fill="rgba(0, 0, 0, 1)" height="2" width="2" x="65" y="25"/>
<rect fill="rgba(0, 0, 0, 1)" height="2" width="2" x="69" y="25"/>
<rect fill="rgba(0, 0, 0, 1)" height="2" width="2" x="73" y="25"/>
<rect fill="rgba(0, 0, 0, 1)" height="2" width="2" x="75" y="25"/>
<rect fill="rgba(0, 0, 0, 1)" height="2" width="2" x="77" y="25"/>
<rect fill="rgba(0, 0, 0, 1)" height="2" width="2" x="79" y="25"/>
<rect fill="rgba(0, 0, 0, 1)" height="2" width="2" x="81" y="25"/>
<rect fill="rgba(0, 0, 0, 1)" height="2" width="2" x="83" y="25"/>
<rect fill="rgba(0, 0, 0, 1)" height="2" width="2" x="85" y="25"/>
<rect fill="rgba(0, 0, 0, 1)" height="2" width="2" x="29" y="27"/>
<rect fill="rgba(0, 0, 0, 1)" height="2" width="2" x="37" y="27"/>
<rect fill="rgba(0, 0, 0, 1)" height="2" width="2" x="39" y="27"/>
<rect fill="rgba(0, 0, 0, 1)" height="2" width="2" x="43" y="27"/>
<rect fill="rgba(0, 0, 0, 1)" height="2" width="2" x="45" y="27"/>
<rect fill="rgba(0, 0, 0, 1)" height="2" width="2" x="47" y="27"/>
<rect fill="rgba(0, 0, 0, 1)" height="2" width="2" x="53" y="27"/>
<rect fill="rgba(0, 0, 0, 1)" height="2" width="2" x="55" y="27"/>
<rect fill="rgba(0, 0, 0, 1)" height="2" width="2" x="65" y="27"/>
<rect fill="rgba(0, 0, 0, 1)" height="2" width="2" x="67" y="27"/>
<rect fill="rgba(0, 0, 0, 1)" height="2" width="2" x="69" y="27"/>
<rect fill="rgba(0, 0, 0, 1)" height="2" width="2" x="21" y="29"/>
<rect fill="rgba(0, 0, 0, 1)" height="2" width="2" x="23" y="29"/>
<rect fill="rgba(0, 0, 0, 1)" height="2" width="2" x="25" y="29"/>
<rect fill="rgba(0, 0, 0, 1)" height="2" width="2" x="27" y="29"/>
<rect fill="rgba(0, 0, 0, 1)" height="2" width="2" x="31" y="29"/>
<rect fill="rgba(0, 0, 0, 1)" height="2" width="2" x="33" y="29"/>
<rect fill="rgba(0, 0, 0, 1)" height="2" width="2" x="37" y="29"/>
<rect fill="rgba(0, 0, 0, 1)" height="2" width="2" x="47" y="29"/>
<rect fill="rgba(0, 0, 0, 1)" height="2" width="2" x="51" y="29"/>
<rect fill="rgba(0, 0, 0, 1)" height="2" width="2" x="55" y="29"/>
<rect fill="rgba(0, 0, 0, 1)" height="2" width="2" x="63" y="29"/>
<rect fill="rgba(0, 0, 0, 1)" height="2" width="2" x="65" y="29"/>
<rect fill="rgba(0, 0, 0, 1)" height="2" width="2" x="73" y="29"/>
<rect fill="rgba(0, 0, 0, 1)" height="2" width="2" x="75" y="29"/>
<rect fill="rgba(0, 0, 0, 1)" height="2" width="2" x="83" y="29"/>
<rect fill="rgba(0, 0, 0, 1)" height="2" width="2" x="13" y="31"/>
<rect fill="rgba(0, 0, 0, 1)" height="2" width="2" x="21" y="31"/>
<rect fill="rgba(0, 0, 0, 1)" height="2" width="2" x="23" y="31"/>
<rect fill="rgba(0, 0, 0, 1)" height="2" width="2" x="27" y="31"/>
<rect fill="rgba(0, 0, 0, 1)" height="2" width="2" x="29" y="31"/>
<rect fill="rgba(0, 0, 0, 1)" height="2" width="2" x="31" y="31"/>
<rect fill="rgba(0, 0, 0, 1)" height="2" width="2" x="33" y="31"/>
<rect fill="rgba(0, 0, 0, 1)" height="2" width="2" x="39" y="31"/>
<rect fill="rgba(0, 0, 0, 1)" height="2" width="2" x="41" y="31"/>
<rect fill="rgba(0, 0, 0, 1)" height="2" width="2" x="47" y="31"/>
<rect fill="rgba(0, 0, 0, 1)" height="2" width="2" x="49" y="31"/>
<rect fill="rgba(0, 0, 0, 1)" height="2" width="2" x="51" y="31"/>
<rect fill="rgba(0, 0, 0, 1)" height="2" width="2" x="55" y="31"/>
<rect fill="rgba(0, 0, 0, 1)" height="2" width="2" x="57" y="31"/>
<rect fill="rgba(0, 0, 0, 1)" height="2" width="2" x="59" y="31"/>
<rect fill="rgba(0, 0, 0, 1)" height="2" width="2" x="69" y="31"/>
<rect fill="rgba(0, 0, 0, 1)" height="2" width="2" x="71" y="31"/>
<rect fill="rgba(0, 0, 0, 1)" height="2" width="2" x="73" y="31"/>
<rect fill="rgba(0, 0, 0, 1)" height="2" width="2" x="75" y="31"/>
<rect fill="rgba(0, 0, 0, 1)" height="2" width="2" x="77" y="31"/>
<rect fill="rgba(0, 0, 0, 1)" height="2" width="2" x="79" y="31"/>
<rect fill="rgba(0, 0, 0, 1)" height="2" width="2" x="81" y="31"/>
<rect fill="rgba(0, 0, 0, 1)" height="2" width="2" x="85" y="31"/>
<rect fill="rgba(0, 0, 0, 1)" height="2" width="2" x="13" y="33"/>
<rect fill="rgba(0, 0, 0, 1)" height="2" width="2" x="17" y="33"/>
<rect fill="rgba(0, 0, 0, 1)" height="2" width="2" x="21" y="33"/>
<rect fill="rgba(0, 0, 0, 1)" height="2" width="2" x="25" y="33"/>
<rect fill="rgba(0, 0, 0, 1)" height="2" width="2" x="29" y="33"/>
<rect fill="rgba(0, 0, 0, 1)" height="2" width="2" x="31" y="33"/>
<rect fill="rgba(0, 0, 0, 1)" height="2" width="2" x="33" y="33"/>
<rect fill="rgba(0, 0, 0, 1)" height="2" width="2" x="37" y="33"/>
<rect fill="rgba(0, 0, 0, 1)" height="2" width="2" x="41" y="33"/>
<rect fill="rgba(0, 0, 0, 1)" height="2" width="2" x="47" y="33"/>
<rect fill="rgba(0, 0, 0, 1)" height="2" width="2" x="49" y="33"/>
<rect fill="rgba(0, 0, 0, 1)" height="2" width="2" x="51" y="33"/>
<rect fill="rgba(0, 0, 0, 1)" height="2" width="2" x="59" y="33"/>
<rect fill="rgba(0, 0, 0, 1)" height="2" width="2" x="61" y="33"/>
<rect fill="rgba(0, 0, 0, 1)" height="2" width="2" x="63" y="33"/>
<rect fill="rgba(0, 0, 0, 1)" height="2" width="2" x="65" y="33"/>
<rect fill="rgba(0, 0, 0, 1)" height="2" width="2" x="69" y="33"/>
<rect fill="rgba(0, 0, 0, 1)" height="2" width="2" x="75" y="33"/>
<rect fill="rgba(0, 0, 0, 1)" height="2" width="2" x="79" y="33"/>
<rect fill="rgba(0, 0, 0, 1)" height="2" width="2" x="85" y="33"/>
<rect fill="rgba(0, 0, 0, 1)" height="2" width="2" x="13" y="35"/>
<rect fill="rgba(0, 0, 0, 1)" height="2" width="2" x="15" y="35"/>
<rect fill="rgba(0, 0, 0, 1)" height="2" width="2" x="19" y="35"/>
<rect fill="rgba(0, 0, 0, 1)" height="2" width="2" x="21" y="35"/>
<rect fill="rgba(0, 0, 0, 1)" height="2" width="2" x="27" y="35"/>
<rect fill="rgba(0, 0, 0, 1)" height="2" width="2" x="29" y="35"/>
<rect fill="rgba(0, 0, 0, 1)" height="2" width="2" x="31" y="35"/>
<rect fill="rgba(0, 0, 0, 1)" height="2" width="2" x="35" y="35"/>
<rect fill="rgba(0, 0, 0, 1)" height="2" width="2" x="37" y="35"/>
<rect fill="rgba(0, 0, 0, 1)" height="2" width="2" x="41" y="35"/>
<rect fill="rgba(0, 0, 0, 1)" height="2" width="2" x="43" y="35"/>
<rect fill="rgba(0, 0, 0, 1)" height="2" width="2" x="51" y="35"/>
<rect fill="rgba(0, 0, 0, 1)" height="2" width="2" x="55" y="35"/>
<rect fill="rgba(0, 0, 0, 1)" height="2" width="2" x="59" y="35"/>
<rect fill="rgba(0, 0, 0, 1)" height="2" width="2" x="63" y="35"/>
<rect fill="rgba(0, 0, 0, 1)" height="2" width="2" x="71" y="35"/>
<rect fill="rgba(0, 0, 0, 1)" height="2" width="2" x="83" y="35"/>
<rect fill="rgba(0, 0, 0, 1)" height="2" width="2" x="85" y="35"/>
<rect fill="rgba(0, 0, 0, 1)" height="2" width="2" x="15" y="37"/>
<rect fill="rgba(0, 0, 0, 1)" height="2" width="2" x="17" y="37"/>
<rect fill="rgba(0, 0, 0, 1)" height="2" width="2" x="19" y="37"/>
<rect fill="rgba(0, 0, 0, 1)" height="2" width="2" x="23" y="37"/>
<rect fill="rgba(0, 0, 0, 1)" height="2" width="2" x="25" y="37"/>
<rect fill="rgba(0, 0, 0, 1)" height="2" width="2" x="27" y="37"/>
<rect fill="rgba(0, 0, 0, 1)" height="2" width="2" x="29" y="37"/>
<rect fill="rgba(0, 0, 0, 1)" height="2" width="2" x="33" y="37"/>
<rect fill="rgba(0, 0, 0, 1)" height="2" width="2" x="35" y="37"/>
<rect fill="rgba(0, 0, 0, 1)" height="2" width="2" x="37" y="37"/>
<rect fill="rgba(0, 0, 0, 1)" height="2" width="2" x="39" y="37"/>
<rect fill="rgba(0, 0, 0, 1)" height="2" width="2" x="41" y="37"/>
<rect fill="rgba(0, 0, 0, 1)" height="2" width="2" x="47" y="37"/>
<rect fill="rgba(0, 0, 0, 1)" height="2" width="2" x="49" y="37"/>
<rect fill="rgba(0, 0, 0, 1)" height="2" width="2" x="51" y="37"/>
<rect fill="rgba(0, 0, 0, 1)" height="2" width="2" x="63" y="37"/>
<rect fill="rgba(0, 0, 0, 1)" height="2" width="2" x="67" y="37"/>
<rect fill="rgba(0, 0, 0, 1)" height="2" width="2" x="77" y="37"/>
<rect fill="rgba(0, 0, 0, 1)" height="2" width="2" x="83" y="37"/>
<rect fill="rgba(0, 0, 0, 1)" height="2" width="2" x="21" y="39"/>
<rect fill="rgba(0, 0, 0, 1)" height="2" width="2" x="23" y="39"/>
<rect fill="rgba(0, 0, 0, 1)" height="2" width="2" x="27" y="39"/>
<rect fill="rgba(0, 0, 0, 1)" height="2" width="2" x="29" y="39"/>
<rect fill="rgba(0, 0, 0, 1)" height="2" width="2" x="31" y="39"/>
<rect fill="rgba(0, 0, 0, 1)" height="2" width="2" x="37" y="39"/>
<rect fill="rgba(0, 0, 0, 1)" height="2" width="2" x="41" y="39"/>
<rect fill="rgba(0, 0, 0, 1)" height="2" width="2" x="47" y="39"/>
<rect fill="rgba(0, 0, 0, 1)" height="2" width="2" x="55" y="39"/>
<rect fill="rgba(0, 0, 0, 1)" height="2" width="2" x="57" y="39"/>
<rect fill="rgba(0, 0, 0, 1)" height="2" width="2" x="59" y="39"/>
<rect fill="rgba(0, 0, 0, 1)" height="2" width="2" x="63" y="39"/>
<rect fill="rgba(0, 0, 0, 1)" height="2" width="2" x="65" y="39"/>
<rect fill="rgba(0, 0, 0, 1)" height="2" width="2" x="69" y="39"/>
<rect fill="rgba(0, 0, 0, 1)" height="2" width="2" x="75" y="39"/>
<rect fill="rgba(0, 0, 0, 1)" height="2" width="2" x="77" y="39"/>
<rect fill="rgba(0, 0, 0, 1)" height="2" width="2" x="83" y="39"/>
<rect fill="rgba(0, 0, 0, 1)" height="2" width="2" x="85" y="39"/>
<rect fill="rgba(0, 0, 0, 1)" height="2" width="2" x="13" y="41"/>
<rect fill="rgba(0, 0, 0, 1)" height="2" width="2" x="17" y="41"/>
<rect fill="rgba(0, 0, 0, 1)" height="2" width="2" x="21" y="41"/>
<rect fill="rgba(0, 0, 0, 1)" height="2" width="2" x="25" y="41"/>
<rect fill="rgba(0, 0, 0, 1)" height="2" width="2" x="27" y="41"/>
<rect fill="rgba(0, 0, 0, 1)" height="2" width="2" x="31" y="41"/>
<rect fill="rgba(0, 0, 0, 1)" height="2" width="2" x="33" y="41"/>
<rect fill="rgba(0, 0, 0, 1)" height="2" width="2" x="35" y="41"/>
<rect fill="rgba(0, 0, 0, 1)" height="2" width="2" x="39" y="41"/>
<rect fill="rgba(0, 0, 0, 1)" height="2" width="2" x="47" y="41"/>
<rect fill="rgba(0, 0, 0, 1)" height="2" width="2" x="49" y="41"/>
<rect fill="rgba(0, 0, 0, 1)" height="2" width="2" x="51" y="41"/>
<rect fill="rgba(0, 0, 0, 1)" height="2" width="2" x="53" y="41"/>
<rect fill="rgba(0, 0, 0, 1)" height="2" width="2" x="59" y="41"/>
<rect fill="rgba(0, 0, 0, 1)" height="2" width="2" x="61" y="41"/>
<rect fill="rgba(0, 0, 0, 1)" height="2" width="2" x="69" y="41"/>
<rect fill="rgba(0, 0, 0, 1)" height="2" width="2" x="71" y="41"/>
<rect fill="rgba(0, 0, 0, 1)" height="2" width="2" x="75" y="41"/>
<rect fill="rgba(0, 0, 0, 1)" height="2" width="2" x="81" y="41"/>
<rect fill="rgba(0, 0, 0, 1)" height="2" width="2" x="83" y="41"/>
<rect fill="rgba(0, 0, 0, 1)" height="2" width="2" x="19" y="43"/>
<rect fill="rgba(0, 0, 0, 1)" height="2" width="2" x="21" y="43"/>
<rect fill="rgba(0, 0, 0, 1)" height="2" width="2" x="27" y="43"/>
<rect fill="rgba(0, 0, 0, 1)" height="2" width="2" x="31" y="43"/>
<rect fill="rgba(0, 0, 0, 1)" height="2" width="2" x="37" y="43"/>
<rect fill="rgba(0, 0, 0, 1)" height="2" width="2" x="39" y="43"/>
<rect fill="rgba(0, 0, 0, 1)" height="2" width="2" x="41" y="43"/>
<rect fill="rgba(0, 0, 0, 1)" height="2" width="2" x="43" y="43"/>
<rect fill="rgba(0, 0, 0, 1)" height="2" width="2" x="51" y="43"/>
<rect fill="rgba(0, 0, 0, 1)" height="2" width="2" x="53" y="43"/>
<rect fill="rgba(0, 0, 0, 1)" height="2" width="2" x="55" y="43"/>
<rect fill="rgba(0, 0, 0, 1)" height="2" width="2" x="57" y="43"/>
<rect fill="rgba(0, 0, 0, 1)" height="2" width="2" x="59" y="43"/>
<rect fill="rgba(0, 0, 0, 1)" height="2" width="2" x="65" y="43"/>
<rect fill="rgba(0, 0, 0, 1)" height="2" width="2" x="13" y="45"/>
<rect fill="rgba(0, 0, 0, 1)" height="2" width="2" x="17" y="45"/>
<rect fill="rgba(0, 0, 0, 1)" height="2" width="2" x="19" y="45"/>
<rect fill="rgba(0, 0, 0, 1)" height="2" width="2" x="23" y="45"/>
<rect fill="rgba(0, 0, 0, 1)" height="2" width="2" x="25" y="45"/>
<rect fill="rgba(0, 0, 0, 1)" height="2" width="2" x="27" y="45"/>
<rect fill="rgba(0, 0, 0, 1)" height="2" width="2" x="33" y="45"/>
<rect fill="rgba(0, 0, 0, 1)" height="2" width="2" x="41" y="45"/>
<rect fill="rgba(0, 0, 0, 1)" height="2" width="2" x="47" y="45"/>
<rect fill="rgba(0, 0, 0, 1)" height="2" width="2" x="49" y="45"/>
<rect fill="rgba(0, 0, 0, 1)" height="2" width="2" x="51" y="45"/>
<rect fill="rgba(0, 0, 0, 1)" height="2" width="2" x="55" y="45"/>
<rect fill="rgba(0, 0, 0, 1)" height="2" width="2" x="57" y="45"/>
<rect fill="rgba(0, 0, 0, 1)" height="2" width="2" x="63" y="45"/>
<rect fill="rgba(0, 0, 0, 1)" height="2" width="2" x="65" y="45"/>
<rect fill="rgba(0, 0, 0, 1)" height="2" width="2" x="67" y="45"/>
<rect fill="rgba(0, 0, 0, 1)" height="2" width="2" x="69" y="45"/>
<rect fill="rgba(0, 0, 0, 1)" height="2" width="2" x="73" y="45"/>
<rect fill="rgba(0, 0, 0, 1)" height="2" width="2" x="75" y="45"/>
<rect fill="rgba(0, 0, 0, 1)" height="2" width="2" x="77" y="45"/>
<rect fill="rgba(0, 0, 0, 1)" height="2" width="2" x="81" y="45"/>
<rect fill="rgba(0, 0, 0, 1)" height="2" width="2" x="85" y="45"/>
<rect fill="rgba(0, 0, 0, 1)" height="2" width="2" x="15" y="47"/>
<rect fill="rgba(0, 0, 0, 1)" height="2" width="2" x="23" y="47"/>
<rect fill="rgba(0, 0, 0, 1)" height="2" width="2" x="31" y="47"/>
<rect fill="rgba(0, 0, 0, 1)" height="2" width="2" x="45" y="47"/>
<rect fill="rgba(0, 0, 0, 1)" height="2" width="2" x="51" y="47"/>
<rect fill="rgba(0, 0, 0, 1)" height="2" width="2" x="59" y="47"/>
<rect fill="rgba(0, 0, 0, 1)" height="2" width="2" x="61" y="47"/>
<rect fill="rgba(0, 0, 0, 1)" height="2" width="2" x="71" y="47"/>
<rect fill="rgba(0, 0, 0, 1)" height="2" width="2" x="73" y="47"/>
<rect fill="rgba(0, 0, 0, 1)" height="2" width="2" x="79" y="47"/>
<rect fill="rgba(0, 0, 0, 1)" height="2" width="2" x="81" y="47"/>
<rect fill="rgba(0, 0, 0, 1)" height="2" width="2" x="15" y="49"/>
<rect fill="rgba(0, 0, 0, 1)" height="2" width="2" x="25" y="49"/>
<rect fill="rgba(0, 0, 0, 1)" height="2" width="2" x="27" y="49"/>
<rect fill="rgba(0, 0, 0, 1)" height="2" width="2" x="33" y="49"/>
<rect fill="rgba(0, 0, 0, 1)" height="2" width="2" x="35" y="49"/>
<rect fill="rgba(0, 0, 0, 1)" height="2" width="2" x="37" y="49"/>
<rect fill="rgba(0, 0, 0, 1)" height="2" width="2" x="39" y="49"/>
<rect fill="rgba(0, 0, 0, 1)" height="2" width="2" x="43" y="49"/>
<rect fill="rgba(0, 0, 0, 1)" height="2" width="2" x="47" y="49"/>
<rect fill="rgba(0, 0, 0, 1)" height="2" width="2" x="49" y="49"/>
<rect fill="rgba(0, 0, 0, 1)" height="2" width="2" x="51" y="49"/>
<rect fill="rgba(0, 0, 0, 1)" height="2" width="2" x="53" y="49"/>
<rect fill="rgba(0, 0, 0, 1)" height="2" width="2" x="55" y="49"/>
<rect fill="rgba(0, 0, 0, 1)" height="2" width="2" x="63" y="49"/>
<rect fill="rgba(0, 0, 0, 1)" height="2" width="2" x="65" y="49"/>
<rect fill="rgba(0, 0, 0, 1)" height="2" width="2" x="67" y="49"/>
<rect fill="rgba(0, 0, 0, 1)" height="2" width="2" x="73" y="49"/>
<rect fill="rgba(0, 0, 0, 1)" height="2" width="2" x="77" y="49"/>
<rect fill="rgba(0, 0, 0, 1)" height="2" width="2" x="79" y="49"/>
<rect fill="rgba(0, 0, 0, 1)" height="2" width="2" x="85" y="49"/>
<rect fill="rgba(0, 0, 0, 1)" height="2" width="2" x="15" y="51"/>
<rect fill="rgba(0, 0, 0, 1)" height="2" width="2" x="19" y="51"/>
<rect fill="rgba(0, 0, 0, 1)" height="2" width="2" x="21" y="51"/>
<rect fill="rgba(0, 0, 0, 1)" height="2" width="2" x="23" y="51"/>
<rect fill="rgba(0, 0, 0, 1)" height="2" width="2" x="27" y="51"/>
<rect fill="rgba(0, 0, 0, 1)" height="2" width="2" x="33" y="51"/>
<rect fill="rgba(0, 0, 0, 1)" height="2" width="2" x="41" y="51"/>
<rect fill="rgba(0, 0, 0, 1)" height="2" width="2" x="43" y="51"/>
<rect fill="rgba(0, 0, 0, 1)" height="2" width="2" x="49" y="51"/>
<rect fill="rgba(0, 0, 0, 1)" height="2" width="2" x="51" y="51"/>
<rect fill="rgba(0, 0, 0, 1)" height="2" width="2" x="53" y="51"/>
<rect fill="rgba(0, 0, 0, 1)" height="2" width="2" x="55" y="51"/>
<rect fill="rgba(0, 0, 0, 1)" height="2" width="2" x="57" y="51"/>
<rect fill="rgba(0, 0, 0, 1)" height="2" width="2" x="63" y="51"/>
<rect fill="rgba(0, 0, 0, 1)" height="2" width="2" x="67" y="51"/>
<rect fill="rgba(0, 0, 0, 1)" height="2" width="2" x="69" y="51"/>
<rect fill="rgba(0, 0, 0, 1)" height="2" width="2" x="71" y="51"/>
<rect fill="rgba(0, 0, 0, 1)" height="2" width="2" x="73" y="51"/>
<rect fill="rgba(0, 0, 0, 1)" height="2" width="2" x="75" y="51"/>
<rect fill="rgba(0, 0, 0, 1)" height="2" width="2" x="77" y="51"/>
<rect fill="rgba(0, 0, 0, 1)" height="2" width="2" x="83" y="51"/>
<rect fill="rgba(0, 0, 0, 1)" height="2" width="2" x="85" y="51"/>
<rect fill="rgba(0, 0, 0, 1)" height="2" width="2" x="21" y="53"/>
<rect fill="rgba(0, 0, 0, 1)" height="2" width="2" x="23" y="53"/>
<rect fill="rgba(0, 0, 0, 1)" height="2" width="2" x="25" y="53"/>
<rect fill="rgba(0, 0, 0, 1)" height="2" width="2" x="31" y="53"/>
<rect fill="rgba(0, 0, 0, 1)" height="2" width="2" x="35" y="53"/>
<rect fill="rgba(0, 0, 0, 1)" height="2" width="2" x="41" y="53"/>
<rect fill="rgba(0, 0, 0, 1)" height="2" width="2" x="45" y="53"/>
<rect fill="rgba(0, 0, 0, 1)" height="2" width="2" x="47" y="53"/>
<rect fill="rgba(0, 0, 0, 1)" height="2" width="2" x="49" y="53"/>
<rect fill="rgba(0, 0, 0, 1)" height="2" width="2" x="51" y="53"/>
<rect fill="rgba(0, 0, 0, 1)" height="2" width="2" x="57" y="53"/>
<rect fill="rgba(0, 0, 0, 1)" height="2" width="2" x="59" y="53"/>
<rect fill="rgba(0, 0, 0, 1)" height="2" width="2" x="61" y="53"/>
<rect fill="rgba(0, 0, 0, 1)" height="2" width="2" x="63" y="53"/>
<rect fill="rgba(0, 0, 0, 1)" height="2" width="2" x="71" y="53"/>
<rect fill="rgba(0, 0, 0, 1)" height="2" width="2" x="75" y="53"/>
<rect fill="rgba(0, 0, 0, 1)" height="2" width="2" x="77" y="53"/>
<rect fill="rgba(0, 0, 0, 1)" height="2" width="2" x="83" y="53"/>
<rect fill="rgba(0, 0, 0, 1)" height="2" width="2" x="85" y="53"/>
<rect fill="rgba(0, 0, 0, 1)" height="2" width="2" x="19" y="55"/>
<rect fill="rgba(0, 0, 0, 1)" height="2" width="2" x="31" y="55"/>
<rect fill="rgba(0, 0, 0, 1)" height="2" width="2" x="33" y="55"/>
<rect fill="rgba(0, 0, 0, 1)" height="2" width="2" x="41" y="55"/>
<rect fill="rgba(0, 0, 0, 1)" height="2" width="2" x="43" y="55"/>
<rect fill="rgba(0, 0, 0, 1)" height="2" width="2" x="45" y="55"/>
<rect fill="rgba(0, 0, 0, 1)" height="2" width="2" x="51" y="55"/>
<rect fill="rgba(0, 0, 0, 1)" height="2" width="2" x="61" y="55"/>
<rect fill="rgba(0, 0, 0, 1)" height="2" width="2" x="65" y="55"/>
<rect fill="rgba(0, 0, 0, 1)" height="2" width="2" x="69" y="55"/>
<rect fill="rgba(0, 0, 0, 1)" height="2" width="2" x="73" y="55"/>
<rect fill="rgba(0, 0, 0, 1)" height="2" width="2" x="77" y="55"/>
<rect fill="rgba(0, 0, 0, 1)" height="2" width="2" x="83" y="55"/>
<rect fill="rgba(0, 0, 0, 1)" height="2" width="2" x="85" y="55"/>
<rect fill="rgba(0, 0, 0, 1)" height="2" width="2" x="15" y="57"/>
<rect fill="rgba(0, 0, 0, 1)" height="2" width="2" x="19" y="57"/>
<rect fill="rgba(0, 0, 0, 1)" height="2" width="2" x="21" y="57"/>
<rect fill="rgba(0, 0, 0, 1)" height="2" width="2" x="25" y="57"/>
<rect fill="rgba(0, 0, 0, 1)" height="2" width="2" x="27" y="57"/>
<rect fill="rgba(0, 0, 0, 1)" height="2" width="2" x="31" y="57"/>
<rect fill="rgba(0, 0, 0, 1)" height="2" width="2" x="33" y="57"/>
<rect fill="rgba(0, 0, 0, 1)" height="2" width="2" x="35" y="57"/>
<rect fill="rgba(0, 0, 0, 1)" height="2" width="2" x="37" y="57"/>
<rect fill="rgba(0, 0, 0, 1)" height="2" width="2" x="39" y="57"/>
<rect fill="rgba(0, 0, 0, 1)" height="2" width="2" x="45" y="57"/>
<rect fill="rgba(0, 0, 0, 1)" height="2" width="2" x="49" y="57"/>
<rect fill="rgba(0, 0, 0, 1)" height="2" width="2" x="51" y="57"/>
<rect fill="rgba(0, 0, 0, 1)" height="2" width="2" x="53" y="57"/>
<rect fill="rgba(0, 0, 0, 1)" height="2" width="2" x="55" y="57"/>
<rect fill="rgba(0, 0, 0, 1)" height="2" width="2" x="63" y="57"/>
<rect fill="rgba(0, 0, 0, 1)" height="2" width="2" x="65" y="57"/>
<rect fill="rgba(0, 0, 0, 1)" height="2" width="2" x="69" y="57"/>
<rect fill="rgba(0, 0, 0, 1)" height="2" width="2" x="73" y="57"/>
<rect fill="rgba(0, 0, 0, 1)" height="2" width="2" x="75" y="57"/>
<rect fill="rgba(0, 0, 0, 1)" height="2" width="2" x="81" y="57"/>
<rect fill="rgba(0, 0, 0, 1)" height="2" width="2" x="83" y="57"/>
<rect fill="rgba(0, 0, 0, 1)" height="2" width="2" x="15" y="59"/>
<rect fill="rgba(0, 0, 0, 1)" height="2" width="2" x="19" y="59"/>
<rect fill="rgba(0, 0, 0, 1)" height="2" width="2" x="23" y="59"/>
<rect fill="rgba(0, 0, 0, 1)" height="2" width="2" x="27" y="59"/>
<rect fill="rgba(0, 0, 0, 1)" height="2" width="2" x="31" y="59"/>
<rect fill="rgba(0, 0, 0, 1)" height="2" width="2" x="41" y="59"/>
<rect fill="rgba(0, 0, 0, 1)" height="2" width="2" x="45" y="59"/>
<rect fill="rgba(0, 0, 0, 1)" height="2" width="2" x="49" y="59"/>
<rect fill="rgba(0, 0, 0, 1)" height="2" width="2" x="51" y="59"/>
<rect fill="rgba(0, 0, 0, 1)" height="2" width="2" x="53" y="59"/>
<rect fill="rgba(0, 0, 0, 1)" height="2" width="2" x="55" y="59"/>
<rect fill="rgba(0, 0, 0, 1)" height="2" width="2" x="57" y="59"/>
<rect fill="rgba(0, 0, 0, 1)" height="2" width="2" x="59" y="59"/>
<rect fill="rgba(0, 0, 0, 1)" height="2" width="2" x="61" y="59"/>
<rect fill="rgba(0, 0, 0, 1)" height="2" width="2" x="63" y="59"/>
<rect fill="rgba(0, 0, 0, 1)" height="2" width="2" x="71" y="59"/>
<rect fill="rgba(0, 0, 0, 1)" height="2" width="2" x="73" y="59"/>
<rect fill="rgba(0, 0, 0, 1)" height="2" width="2" x="77" y="59"/>
<rect fill="rgba(0, 0, 0, 1)" height="2" width="2" x="79" y="59"/>
<rect fill="rgba(0, 0, 0, 1)" height="2" width="2" x="81" y="59"/>
<rect fill="rgba(0, 0, 0, 1)" height="2" width="2" x="17" y="61"/>
<rect fill="rgba(0, 0, 0, 1)" height="2" width="2" x="19" y="61"/>
<rect fill="rgba(0, 0, 0, 1)" height="2" width="2" x="23" y="61"/>
<rect fill="rgba(0, 0, 0, 1)" height="2" width="2" x="25" y="61"/>
<rect fill="rgba(0, 0, 0, 1)" height="2" width="2" x="31" y="61"/>
<rect fill="rgba(0, 0, 0, 1)" height="2" width="2" x="33" y="61"/>
<rect fill="rgba(0, 0, 0, 1)" height="2" width="2" x="35" y="61"/>
<rect fill="rgba(0, 0, 0, 1)" height="2" width="2" x="41" y="61"/>
<rect fill="rgba(0, 0, 0, 1)" height="2" width="2" x="45" y="61"/>
<rect fill="rgba(0, 0, 0, 1)" height="2" width="2" x="51" y="61"/>
<rect fill="rgba(0, 0, 0, 1)" height="2" width="2" x="57" y="61"/>
<rect fill="rgba(0, 0, 0, 1)" height="2" width="2" x="59" y="61"/>
<rect fill="rgba(0, 0, 0, 1)" height="2" width="2" x="61" y="61"/>
<rect fill="rgba(0, 0, 0, 1)" height="2" width="2" x="63" y="61"/>
<rect fill="rgba(0, 0, 0, 1)" height="2" width="2" x="67" y="61"/>
<rect fill="rgba(0, 0, 0, 1)" height="2" width="2" x="69" y="61"/>
<rect fill="rgba(0, 0, 0, 1)" height="2" width="2" x="71" y="61"/>
<rect fill="rgba(0, 0, 0, 1)" height="2" width="2" x="75" y="61"/>
<rect fill="rgba(0, 0, 0, 1)" height="2" width="2" x="77" y="61"/>
<rect fill="rgba(0, 0, 0, 1)" height="2" width="2" x="79" y="61"/>
<rect fill="rgba(0, 0, 0, 1)" height="2" width="2" x="85" y="61"/>
<rect fill="rgba(0, 0, 0, 1)" height="2" width="2" x="13" y="63"/>
<rect fill="rgba(0, 0, 0, 1)" height="2" width="2" x="21" y="63"/>
<rect fill="rgba(0, 0, 0, 1)" height="2" width="2" x="23" y="63"/>
<rect fill="rgba(0, 0, 0, 1)" height="2" width="2" x="29" y="63"/>
<rect fill="rgba(0, 0, 0, 1)" height="2" width="2" x="41" y="63"/>
<rect fill="rgba(0, 0, 0, 1)" height="2" width="2" x="45" y="63"/>
<rect fill="rgba(0, 0, 0, 1)" height="2" width="2" x="47" y="63"/>
<rect fill="rgba(0, 0, 0, 1)" height="2" width="2" x="51" y="63"/>
<rect fill="rgba(0, 0, 0, 1)" height="2" width="2" x="53" y="63"/>
<rect fill="rgba(0, 0, 0, 1)" height="2" width="2" x="63" y="63"/>
<rect fill="rgba(0, 0, 0, 1)" height="2" width="2" x="65" y="63"/>
<rect fill="rgba(0, 0, 0, 1)" height="2" width="2" x="73" y="63"/>
<rect fill="rgba(0, 0, 0, 1)" height="2" width="2" x="83" y="63"/>
<rect fill="rgba(0, 0, 0, 1)" height="2" width="2" x="85" y="63"/>
<rect fill="rgba(0, 0, 0, 1)" height="2" width="2" x="25" y="65"/>
<rect fill="rgba(0, 0, 0, 1)" height="2" width="2" x="27" y="65"/>
<rect fill="rgba(0, 0, 0, 1)" height="2" width="2" x="33" y="65"/>
<rect fill="rgba(0, 0, 0, 1)" height="2" width="2" x="37" y="65"/>
<rect fill="rgba(0, 0, 0, 1)" height="2" width="2" x="43" y="65"/>
<rect fill="rgba(0, 0, 0, 1)" height="2" width="2" x="49" y="65"/>
<rect fill="rgba(0, 0, 0, 1)" height="2" width="2" x="53" y="65"/>
<rect fill="rgba(0, 0, 0, 1)" height="2" width="2" x="55" y="65"/>
<rect fill="rgba(0, 0, 0, 1)" height="2" width="2" x="67" y="65"/>
<rect fill="rgba(0, 0, 0, 1)" height="2" width="2" x="73" y="65"/>
<rect fill="rgba(0, 0, 0, 1)" height="2" width="2" x="77" y="65"/>
<rect fill="rgba(0, 0, 0, 1)" height="2" width="2" x="81" y="65"/>
<rect fill="rgba(0, 0, 0, 1)" height="2" width="2" x="83" y="65"/>
<rect fill="rgba(0, 0, 0, 1)" height="2" width="2" x="17" y="67"/>
<rect fill="rgba(0, 0, 0, 1)" height="2" width="2" x="21" y="67"/>
<rect fill="rgba(0, 0, 0, 1)" height="2" width="2" x="29" y="67"/>
<rect fill="rgba(0, 0, 0, 1)" height="2" width="2" x="33" y="67"/>
<rect fill="rgba(0, 0, 0, 1)" height="2" width="2" x="39" y="67"/>
<rect fill="rgba(0, 0, 0, 1)" height="2" width="2" x="41" y="67"/>
<rect fill="rgba(0, 0, 0, 1)" height="2" width="2" x="43" y="67"/>
<rect fill="rgba(0, 0, 0, 1)" height="2" width="2" x="51" y="67"/>
<rect fill="rgba(0, 0, 0, 1)" height="2" width="2" x="53" y="67"/>
<rect fill="rgba(0, 0, 0, 1)" height="2" width="2" x="55" y="67"/>
<rect fill="rgba(0, 0, 0, 1)" height="2" width="2" x="61" y="67"/>
<rect fill="rgba(0, 0, 0, 1)" height="2" width="2" x="65" y="67"/>
<rect fill="rgba(0, 0, 0, 1)" height="2" width="2" x="67" y="67"/>
<rect fill="rgba(0, 0, 0, 1)" height="2" width="2" x="69" y="67"/>
<rect fill="rgba(0, 0, 0, 1)" height="2" width="2" x="71" y="67"/>
<rect fill="rgba(0, 0, 0, 1)" height="2" width="2" x="73" y="67"/>
<rect fill="rgba(0, 0, 0, 1)" height="2" width="2" x="75" y="67"/>
<rect fill="rgba(0, 0, 0, 1)" height="2" width="2" x="77" y="67"/>
<rect fill="rgba(0, 0, 0, 1)" height="2" width="2" x="79" y="67"/>
<rect fill="rgba(0, 0, 0, 1)" height="2" width="2" x="81" y="67"/>
<rect fill="rgba(0, 0, 0, 1)" height="2" width="2" x="13" y="69"/>
<rect fill="rgba(0, 0, 0, 1)" height="2" width="2" x="15" y="69"/>
<rect fill="rgba(0, 0, 0, 1)" height="2" width="2" x="19" y="69"/>
<rect fill="rgba(0, 0, 0, 1)" height="2" width="2" x="21" y="69"/>
<rect fill="rgba(0, 0, 0, 1)" height="2" width="2" x="25" y="69"/>
<rect fill="rgba(0, 0, 0, 1)" height="2" width="2" x="27" y="69"/>
<rect fill="rgba(0, 0, 0, 1)" height="2" width="2" x="29" y="69"/>
<rect fill="rgba(0, 0, 0, 1)" height="2" width="2" x="33" y="69"/>
<rect fill="rgba(0, 0, 0, 1)" height="2" width="2" x="37" y="69"/>
<rect fill="rgba(0, 0, 0, 1)" height="2" width="2" x="45" y="69"/>
<rect fill="rgba(0, 0, 0, 1)" height="2" width="2" x="47" y="69"/>
<rect fill="rgba(0, 0, 0, 1)" height="2" width="2" x="49" y="69"/>
<rect fill="rgba(0, 0, 0, 1)" height="2" width="2" x="53" y="69"/>
<rect fill="rgba(0, 0, 0, 1)" height="2" width="2" x="59" y="69"/>
<rect fill="rgba(0, 0, 0, 1)" height="2" width="2" x="61" y="69"/>
<rect fill="rgba(0, 0, 0, 1)" height="2" width="2" x="63" y="69"/>
<rect fill="rgba(0, 0, 0, 1)" height="2" width="2" x="65" y="69"/>
<rect fill="rgba(0, 0, 0, 1)" height="2" width="2" x="69" y="69"/>
<rect fill="rgba(0, 0, 0, 1)" height="2" width="2" x="71" y="69"/>
<rect fill="rgba(0, 0, 0, 1)" height="2" width="2" x="73" y="69"/>
<rect fill="rgba(0, 0, 0, 1)" height="2" width="2" x="75" y="69"/>
<rect fill="rgba(0, 0, 0, 1)" height="2" width="2" x="77" y="69"/>
<rect fill="rgba(0, 0, 0, 1)" height="2" width="2" x="79" y="69"/>
<rect fill="rgba(0, 0, 0, 1)" height="2" width="2" x="85" y="69"/>
<rect fill="rgba(0, 0, 0, 1)" height="2" width="2" x="29" y="71"/>
<rect fill="rgba(0, 0, 0, 1)" height="2" width="2" x="35" y="71"/>
<rect fill="rgba(0, 0, 0, 1)" height="2" width="2" x="39" y="71"/>
<rect fill="rgba(0, 0, 0, 1)" height="2" width="2" x="45" y="71"/>
<rect fill="rgba(0, 0, 0, 1)" height="2" width="2" x="47" y="71"/>
<rect fill="rgba(0, 0, 0, 1)" height="2" width="2" x="51" y="71"/>
<rect fill="rgba(0, 0, 0, 1)" height="2" width="2" x="57" y="71"/>
<rect fill="rgba(0, 0, 0, 1)" height="2" width="2" x="67" y="71"/>
<rect fill="rgba(0, 0, 0, 1)" height="2" width="2" x="69" y="71"/>
<rect fill="rgba(0, 0, 0, 1)" height="2" width="2" x="77" y="71"/>
<rect fill="rgba(0, 0, 0, 1)" height="2" width="2" x="79" y="71"/>
<rect fill="rgba(0, 0, 0, 1)" height="2" width="2" x="85" y="71"/>
<rect fill="rgba(0, 0, 0, 1)" height="2" width="2" x="13" y="73"/>
<rect fill="rgba(0, 0, 0, 1)" height="2" width="2" x="15" y="73"/>
<rect fill="rgba(0, 0, 0, 1)" height="2" width="2" x="17" y="73"/>
<rect fill="rgba(0, 0, 0, 1)" height="2" width="2" x="19" y="73"/>
<rect fill="rgba(0, 0, 0, 1)" height="2" width="2" x="21" y="73"/>
<rect fill="rgba(0, 0, 0, 1)" height="2" width="2" x="23" y="73"/>
<rect fill="rgba(0, 0, 0, 1)" height="2" width="2" x="25" y="73"/>
<rect fill="rgba(0, 0, 0, 1)" height="2" width="2" x="29" y="73"/>
<rect fill="rgba(0, 0, 0, 1)" height="2" width="2" x="33" y="73"/>
<rect fill="rgba(0, 0, 0, 1)" height="2" width="2" x="41" y="73"/>
<rect fill="rgba(0, 0, 0, 1)" height="2" width="2" x="43" y="73"/>
<rect fill="rgba(0, 0, 0, 1)" height="2" width="2" x="49" y="73"/>
<rect fill="rgba(0, 0, 0, 1)" height="2" width="2" x="51" y="73"/>
<rect fill="rgba(0, 0, 0, 1)" height="2" width="2" x="53" y="73"/>
<rect fill="rgba(0, 0, 0, 1)" height="2" width="2" x="63" y="73"/>
<rect fill="rgba(0, 0, 0, 1)" height="2" width="2" x="65" y="73"/>
<rect fill="rgba(0, 0, 0, 1)" height="2" width="2" x="67" y="73"/>
<rect fill="rgba(0, 0, 0, 1)" height="2" width="2" x="69" y="73"/>
<rect fill="rgba(0, 0, 0, 1)" height="2" width="2" x="73" y="73"/>
<rect fill="rgba(0, 0, 0, 1)" height="2" width="2" x="77" y="73"/>
<rect fill="rgba(0, 0, 0, 1)" height="2" width="2" x="79" y="73"/>
<rect fill="rgba(0, 0, 0, 1)" height="2" width="2" x="85" y="73"/>
<rect fill="rgba(0, 0, 0, 1)" height="2" width="2" x="13" y="75"/>
<rect fill="rgba(0, 0, 0, 1)" height="2" width="2" x="25" y="75"/>
<rect fill="rgba(0, 0, 0, 1)" height="2" width="2" x="29" y="75"/>
<rect fill="rgba(0, 0, 0, 1)" height="2" width="2" x="33" y="75"/>
<rect fill="rgba(0, 0, 0, 1)" height="2" width="2" x="39" y="75"/>
<rect fill="rgba(0, 0, 0, 1)" height="2" width="2" x="41" y="75"/>
<rect fill="rgba(0, 0, 0, 1)" height="2" width="2" x="43" y="75"/>
<rect fill="rgba(0, 0, 0, 1)" height="2" width="2" x="57" y="75"/>
<rect fill="rgba(0, 0, 0, 1)" height="2" width="2" x="61" y="75"/>
<rect fill="rgba(0, 0, 0, 1)" height="2" width="2" x="63" y="75"/>
<rect fill="rgba(0, 0, 0, 1)" height="2" width="2" x="67" y="75"/>
<rect fill="rgba(0, 0, 0, 1)" height="2" width="2" x="69" y="75"/>
<rect fill="rgba(0, 0, 0, 1)" height="2" width="2" x="77" y="75"/>
<rect fill="rgba(0, 0, 0, 1)" height="2" width="2" x="79" y="75"/>
<rect fill="rgba(0, 0, 0, 1)" height="2" width="2" x="83" y="75"/>
<rect fill="rgba(0, 0, 0, 1)" height="2" width="2" x="85" y="75"/>
<rect fill="rgba(0, 0, 0, 1)" height="2" width="2" x="13" y="77"/>
<rect fill="rgba(0, 0, 0, 1)" height="2" width="2" x="17" y="77"/>
<rect fill="rgba(0, 0, 0, 1)" height="2" width="2" x="19" y="77"/>
<rect fill="rgba(0, 0, 0, 1)" height="2" width="2" x="21" y="77"/>
<rect fill="rgba(0, 0, 0, 1)" height="2" width="2" x="25" y="77"/>
<rect fill="rgba(0, 0, 0, 1)" height="2" width="2" x="29" y="77"/>
<rect fill="rgba(0, 0, 0, 1)" height="2" width="2" x="33" y="77"/>
<rect fill="rgba(0, 0, 0, 1)" height="2" width="2" x="39" y="77"/>
<rect fill="rgba(0, 0, 0, 1)" height="2" width="2" x="41" y="77"/>
<rect fill="rgba(0, 0, 0, 1)" height="2" width="2" x="45" y="77"/>
<rect fill="rgba(0, 0, 0, 1)" height="2" width="2" x="47" y="77"/>
<rect fill="rgba(0, 0, 0, 1)" height="2" width="2" x="49" y="77"/>
<rect fill="rgba(0, 0, 0, 1)" height="2" width="2" x="57" y="77"/>
<rect fill="rgba(0, 0, 0, 1)" height="2" width="2" x="59" y="77"/>
<rect fill="rgba(0, 0, 0, 1)" height="2" width="2" x="63" y="77"/>
<rect fill="rgba(0, 0, 0, 1)" height="2" width="2" x="69" y="77"/>
<rect fill="rgba(0, 0, 0, 1)" height="2" width="2" x="71" y="77"/>
<rect fill="rgba(0, 0, 0, 1)" height="2" width="2" x="73" y="77"/>
<rect fill="rgba(0, 0, 0, 1)" height="2" width="2" x="75" y="77"/>
<rect fill="rgba(0, 0, 0, 1)" height="2" width="2" x="77" y="77"/>
<rect fill="rgba(0, 0, 0, 1)" height="2" width="2" x="79" y="77"/>
<rect fill="rgba(0, 0, 0, 1)" height="2" width="2" x="83" y="77"/>
<rect fill="rgba(0, 0, 0, 1)" height="2" width="2" x="13" y="79"/>
<rect fill="rgba(0, 0, 0, 1)" height="2" width="2" x="17" y="79"/>
<rect fill="rgba(0, 0, 0, 1)" height="2" width="2" x="19" y="79"/>
<rect fill="rgba(0, 0, 0, 1)" height="2" width="2" x="21" y="79"/>
<rect fill="rgba(0, 0, 0, 1)" height="2" width="2" x="25" y="79"/>
<rect fill="rgba(0, 0, 0, 1)" height="2" width="2" x="45" y="79"/>
<rect fill="rgba(0, 0, 0, 1)" height="2" width="2" x="51" y="79"/>
<rect fill="rgba(0, 0, 0, 1)" height="2" width="2" x="55" y="79"/>
<rect fill="rgba(0, 0, 0, 1)" height="2" width="2" x="57" y="79"/>
<rect fill="rgba(0, 0, 0, 1)" height="2" width="2" x="61" y="79"/>
<rect fill="rgba(0, 0, 0, 1)" height="2" width="2" x="63" y="79"/>
<rect fill="rgba(0, 0, 0, 1)" height="2" width="2" x="65" y="79"/>
<rect fill="rgba(0, 0, 0, 1)" height="2" width="2" x="67" y="79"/>
<rect fill="rgba(0, 0, 0, 1)" height="2" width="2" x="73" y="79"/>
<rect fill="rgba(0, 0, 0, 1)" height="2" width="2" x="75" y="79"/>
<rect fill="rgba(0, 0, 0, 1)" height="2" width="2" x="77" y="79"/>
<rect fill="rgba(0, 0, 0, 1)" height="2" width="2" x="85" y="79"/>
<rect fill="rgba(0, 0, 0, 1)" height="2" width="2" x="13" y="81"/>
<rect fill="rgba(0, 0, 0, 1)" height="2" width="2" x="17" y="81"/>
<rect fill="rgba(0, 0, 0, 1)" height="2" width="2" x="19" y="81"/>
<rect fill="rgba(0, 0, 0, 1)" height="2" width="2" x="21" y="81"/>
<rect fill="rgba(0, 0, 0, 1)" height="2" width="2" x="25" y="81"/>
<rect fill="rgba(0, 0, 0, 1)" height="2" width="2" x="35" y="81"/>
<rect fill="rgba(0, 0, 0, 1)" height="2" width="2" x="39" y="81"/>
<rect fill="rgba(0, 0, 0, 1)" height="2" width="2" x="41" y="81"/>
<rect fill="rgba(0, 0, 0, 1)" height="2" width="2" x="43" y="81"/>
<rect fill="rgba(0, 0, 0, 1)" height="2" width="2" x="49" y="81"/>
<rect fill="rgba(0, 0, 0, 1)" height="2" width="2" x="53" y="81"/>
<rect fill="rgba(0, 0, 0, 1)" height="2" width="2" x="59" y="81"/>
<rect fill="rgba(0, 0, 0, 1)" height="2" width="2" x="61" y="81"/>
<rect fill="rgba(0, 0, 0, 1)" height="2" width="2" x="67" y="81"/>
<rect fill="rgba(0, 0, 0, 1)" height="2" width="2" x="69" y="81"/>
<rect fill="rgba(0, 0, 0, 1)" height="2" width="2" x="71" y="81"/>
<rect fill="rgba(0, 0, 0, 1)" height="2" width="2" x="75" y="81"/>
<rect fill="rgba(0, 0, 0, 1)" height="2" width="2" x="77" y="81"/>
<rect fill="rgba(0, 0, 0, 1)" height="2" width="2" x="81" y="81"/>
<rect fill="rgba(0, 0, 0, 1)" height="2" width="2" x="83" y="81"/>
<rect fill="rgba(0, 0, 0, 1)" height="2" width="2" x="13" y="83"/>
<rect fill="rgba(0, 0, 0, 1)" height="2" width="2" x="25" y="83"/>
<rect fill="rgba(0, 0, 0, 1)" height="2" width="2" x="31" y="83"/>
<rect fill="rgba(0, 0, 0, 1)" height="2" width="2" x="33" y="83"/>
<rect fill="rgba(0, 0, 0, 1)" height="2" width="2" x="37" y="83"/>
<rect fill="rgba(0, 0, 0, 1)" height="2" width="2" x="43" y="83"/>
<rect fill="rgba(0, 0, 0, 1)" height="2" width="2" x="47" y="83"/>
<rect fill="rgba(0, 0, 0, 1)" height="2" width="2" x="49" y="83"/>
<rect fill="rgba(0, 0, 0, 1)" height="2" width="2" x="51" y="83"/>
<rect fill="rgba(0, 0, 0, 1)" height="2" width="2" x="53" y="83"/>
<rect fill="rgba(0, 0, 0, 1)" height="2" width="2" x="55" y="83"/>
<rect fill="rgba(0, 0, 0, 1)" height="2" width="2" x="59" y="83"/>
<rect fill="rgba(0, 0, 0, 1)" height="2" width="2" x="65" y="83"/>
<rect fill="rgba(0, 0, 0, 1)" height="2" width="2" x="67" y="83"/>
<rect fill="rgba(0, 0, 0, 1)" height="2" width="2" x="69" y="83"/>
<rect fill="rgba(0, 0, 0, 1)" height="2" width="2" x="73" y="83"/>
<rect fill="rgba(0, 0, 0, 1)" height="2" width="2" x="77" y="83"/>
<rect fill="rgba(0, 0, 0, 1)" height="2" width="2" x="79" y="83"/>
<rect fill="rgba(0, 0, 0, 1)" height="2" width="2" x="81" y="83"/>
<rect fill="rgba(0, 0, 0, 1)" height="2" width="2" x="83" y="83"/>
<rect fill="rgba(0, 0, 0, 1)" height="2" width="2" x="13" y="85"/>
<rect fill="rgba(0, 0, 0, 1)" height="2" width="2" x="15" y="85"/>
<rect fill="rgba(0, 0, 0, 1)" height="2" width="2" x="17" y="85"/>
<rect fill="rgba(0, 0, 0, 1)" height="2" width="2" x="19" y="85"/>
<rect fill="rgba(0, 0, 0, 1)" height="2" width="2" x="21" y="85"/>
<rect fill="rgba(0, 0, 0, 1)" height="2" width="2" x="23" y="85"/>
<rect fill="rgba(0, 0, 0, 1)" height="2" width="2" x="25" y="85"/>
<rect fill="rgba(0, 0, 0, 1)" height="2" width="2" x="31" y="85"/>
<rect fill="rgba(0, 0, 0, 1)" height="2" width="2" x="33" y="85"/>
<rect fill="rgba(0, 0, 0, 1)" height="2" width="2" x="35" y="85"/>
<rect fill="rgba(0, 0, 0, 1)" height="2" width="2" x="39" y="85"/>
<rect fill="rgba(0, 0, 0, 1)" height="2" width="2" x="43" y="85"/>
<rect fill="rgba(0, 0, 0, 1)" height="2" width="2" x="47" y="85"/>
<rect fill="rgba(0, 0, 0, 1)" height="2" width="2" x="49" y="85"/>
<rect fill="rgba(0, 0, 0, 1)" height="2" width="2" x="57" y="85"/>
<rect fill="rgba(0, 0, 0, 1)" height="2" width="2" x="63" y="85"/>
<rect fill="rgba(0, 0, 0, 1)" height="2" width="2" x="65" y="85"/>
<rect fill="rgba(0, 0, 0, 1)" height="2" width="2" x="67" y="85"/>
<rect fill="rgba(0, 0, 0, 1)" height="2" width="2" x="69" y="85"/>
<rect fill="rgba(0, 0, 0, 1)" height="2" width="2" x="79" y="85"/>
</svg>