<svg height="200" viewBox="0 0 200 200" width="200" xmlns="http://www.w3.org/2000/svg">
<rect fill="rgba(255, 255, 255, 1)" height="100%" width="100%"/>
<rect fill="rgba(0, 0, 0, 1)" height="5" width="5" x="7" y="7"/>
<rect fill="rgba(0, 0, 0, 1)" height="5" width="5" x="12" y="7"/>
<rect fill="rgba(0, 0, 0, 1)" height="5" width="5" x="17" y="7"/>
<rect fill="rgba(0, 0, 0, 1)" height="5" width="5" x="22" y="7"/>
<rect fill="rgba(0, 0, 0, 1)" height="5" width="5" x="27" y="7"/>
<rect fill="rgba(0, 0, 0, 1)" height="5" width="5" x="32" y="7"/>
<rect fill="rgba(0, 0, 0, 1)" height="5" width="5" x="37" y="7"/>
<rect fill="rgba(0, 0, 0, 1)" height="5" width="5" x="47" y="7"/>
<rect fill="rgba(0, 0, 0, 1)" height="5" width="5" x="52" y="7"/>
<rect fill="rgba(0, 0, 0, 1)" height="5" width="5" x="57" y="7"/>
<rect fill="rgba(0, 0, 0, 1)" height="5" width="5" x="62" y="7"/>
<rect fill="rgba(0, 0, 0, 1)" height="5" width="5" x="72" y="7"/>
<rect fill="rgba(0, 0, 0, 1)" height="5" width="5" x="77" y="7"/>
<rect fill="rgba(0, 0, 0, 1)" height="5" width="5" x="87" y="7"/>
<rect fill="rgba(0, 0, 0, 1)" height="5" width="5" x="97" y="7"/>
<rect fill="rgba(0, 0, 0, 1)" height="5" width="5" x="102" y="7"/>
<rect fill="rgba(0, 0, 0, 1)" height="5" width="5" x="107" y="7"/>
<rect fill="rgba(0, 0, 0, 1)" height="5" width="5" x="137" y="7"/>
<rect fill="rgba(0, 0, 0, 1)" height="5" width="5" x="157" y="7"/>
<rect fill="rgba(0, 0, 0, 1)" height="5" width="5" x="162" y="7"/>
<rect fill="rgba(0, 0, 0, 1)" height="5" width="5" x="167" y="7"/>
<rect fill="rgba(0, 0, 0, 1)" height="5" width="5" x="172" y="7"/>
<rect fill="rgba(0, 0, 0, 1)" height="5" width="5" x="177" y="7"/>
<rect fill="rgba(0, 0, 0, 1)" height="5" width="5" x="182" y="7"/>
<rect fill="rgba(0, 0, 0, 1)" height="5" width="5" x="187" y="7"/>
<rect fill="rgba(0, 0, 0, 1)" height="5" width="5" x="7" y="12"/>
<rect fill="rgba(0, 0, 0, 1)" height="5" width="5" x="37" y="12"/>
<rect fill="rgba(0, 0, 0, 1)" height="5" width="5" x="47" y="12"/>
<rect fill="rgba(0, 0, 0, 1)" height="5" width="5" x="52" y="12"/>
<rect fill="rgba(0, 0, 0, 1)" height="5" width="5" x="62" y="12"/>
<rect fill="rgba(0, 0, 0, 1)" height="5" width="5" x="67" y="12"/>
<rect fill="rgba(0, 0, 0, 1)" height="5" width="5" x="72" y="12"/>
<rect fill="rgba(0, 0, 0, 1)" height="5" width="5" x="92" y="12"/>
<rect fill="rgba(0, 0, 0, 1)" height="5" width="5" x="97" y="12"/>
<rect fill="rgba(0, 0, 0, 1)" height="5" width="5" x="122" y="12"/>
<rect fill="rgba(0, 0, 0, 1)" height="5" width="5" x="147" y="12"/>
<rect fill="rgba(0, 0, 0, 1)" height="5" width="5" x="157" y="12"/>
<rect fill="rgba(0, 0, 0, 1)" height="5" width="5" x="187" y="12"/>
<rect fill="rgba(0, 0, 0, 1)" height="5" width="5" x="7" y="17"/>
<rect fill="rgba(0, 0, 0, 1)" height="5" width="5" x="17" y="17"/>
<rect fill="rgba(0, 0, 0, 1)" height="5" width="5" x="22" y="17"/>
<rect fill="rgba(0, 0, 0, 1)" height="5" width="5" x="27" y="17"/>
<rect fill="rgba(0, 0, 0, 1)" height="5" width="5" x="37" y="17"/>
<rect fill="rgba(0, 0, 0, 1)" height="5" width="5" x="52" y="17"/>
<rect fill="rgba(0, 0, 0, 1)" height="5" width="5" x="57" y="17"/>
<rect fill="rgba(0, 0, 0, 1)" height="5" width="5" x="72" y="17"/>
<rect fill="rgba(0, 0, 0, 1)" height="5" width="5" x="92" y="17"/>
<rect fill="rgba(0, 0, 0, 1)" height="5" width="5" x="97" y="17"/>
<rect fill="rgba(0, 0, 0, 1)" height="5" width="5" x="107" y="17"/>
<rect fill="rgba(0, 0, 0, 1)" height="5" width="5" x="127" y="17"/>
<rect fill="rgba(0, 0, 0, 1)" height="5" width="5" x="137" y="17"/>
<rect fill="rgba(0, 0, 0, 1)" height="5" width="5" x="142" y="17"/>
<rect fill="rgba(0, 0, 0, 1)" height="5" width="5" x="157" y="17"/>
<rect fill="rgba(0, 0, 0, 1)" height="5" width="5" x="167" y="17"/>
<rect fill="rgba(0, 0, 0, 1)" height="5" width="5" x="172" y="17"/>
<rect fill="rgba(0, 0, 0, 1)" height="5" width="5" x="177" y="17"/>
<rect fill="rgba(0, 0, 0, 1)" height="5" width="5" x="187" y="17"/>
<rect fill="rgba(0, 0, 0, 1)" height="5" width="5" x="7" y="22"/>
<rect fill="rgba(0, 0, 0, 1)" height="5" width="5" x="17" y="22"/>
<rect fill="rgba(0, 0, 0, 1)" height="5" width="5" x="22" y="22"/>
<rect fill="rgba(0, 0, 0, 1)" height="5" width="5" x="27" y="22"/>
<rect fill="rgba(0, 0, 0, 1)" height="5" width="5" x="37" y="22"/>
<rect fill="rgba(0, 0, 0, 1)" height="5" width="5" x="47" y="22"/>
<rect fill="rgba(0, 0, 0, 1)" height="5" width="5" x="52" y="22"/>
<rect fill="rgba(0, 0, 0, 1)" height="5" width="5" x="57" y="22"/>
<rect fill="rgba(0, 0, 0, 1)" height="5" width="5" x="62" y="22"/>
<rect fill="rgba(0, 0, 0, 1)" height="5" width="5" x="77" y="22"/>
<rect fill="rgba(0, 0, 0, 1)" height="5" width="5" x="82" y="22"/>
<rect fill="rgba(0, 0, 0, 1)" height="5" width="5" x="87" y="22"/>
<rect fill="rgba(0, 0, 0, 1)" height="5" width="5" x="92" y="22"/>
<rect fill="rgba(0, 0, 0, 1)" height="5" width="5" x="102" y="22"/>
<rect fill="rgba(0, 0, 0, 1)" height="5" width="5" x="132" y="22"/>
<rect fill="rgba(0, 0, 0, 1)" height="5" width="5" x="147" y="22"/>
<rect fill="rgba(0, 0, 0, 1)" height="5" width="5" x="157" y="22"/>
<rect fill="rgba(0, 0, 0, 1)" height="5" width="5" x="167" y="22"/>
<rect fill="rgba(0, 0, 0, 1)" height="5" width="5" x="172" y="22"/>
<rect fill="rgba(0, 0, 0, 1)" height="5" width="5" x="177" y="22"/>
<rect fill="rgba(0, 0, 0, 1)" height="5" width="5" x="187" y="22"/>
<rect fill="rgba(0, 0, 0, 1)" height="5" width="5" x="7" y="27"/>
<rect fill="rgba(0, 0, 0, 1)" height="5" width="5" x="17" y="27"/>
<rect fill="rgba(0, 0, 0, 1)" height="5" width="5" x="22" y="27"/>
<rect fill="rgba(0, 0, 0, 1)" height="5" width="5" x="27" y="27"/>
<rect fill="rgba(0, 0, 0, 1)" height="5" width="5" x="37" y="27"/>
<rect fill="rgba(0, 0, 0, 1)" height="5" width="5" x="47" y="27"/>
<rect fill="rgba(0, 0, 0, 1)" height="5" width="5" x="52" y="27"/>
<rect fill="rgba(0, 0, 0, 1)" height="5" width="5" x="57" y="27"/>
<rect fill="rgba(0, 0, 0, 1)" height="5" width="5" x="62" y="27"/>
<rect fill="rgba(0, 0, 0, 1)" height="5" width="5" x="77" y="27"/>
<rect fill="rgba(0, 0, 0, 1)" height="5" width="5" x="87" y="27"/>
<rect fill="rgba(0, 0, 0, 1)" height="5" width="5" x="92" y="27"/>
<rect fill="rgba(0, 0, 0, 1)" height="5" width="5" x="107" y="27"/>
<rect fill="rgba(0, 0, 0, 1)" height="5" width="5" x="117" y="27"/>
<rect fill="rgba(0, 0, 0, 1)" height="5" width="5" x="122" y="27"/>
<rect fill="rgba(0, 0, 0, 1)" height="5" width="5" x="132" y="27"/>
<rect fill="rgba(0, 0, 0, 1)" height="5" width="5" x="142" y="27"/>
<rect fill="rgba(0, 0, 0, 1)" height="5" width="5" x="147" y="27"/>
<rect fill="rgba(0, 0, 0, 1)" height="5" width="5" x="157" y="27"/>
<rect fill="rgba(0, 0, 0, 1)" height="5" width="5" x="167" y="27"/>
<rect fill="rgba(0, 0, 0, 1)" height="5" width="5" x="172" y="27"/>
<rect fill="rgba(0, 0, 0, 1)" height="5" width="5" x="177" y="27"/>
<rect fill="rgba(0, 0, 0, 1)" height="5" width="5" x="187" y="27"/>
<rect fill="rgba(0, 0, 0, 1)" height="5" width="5" x="7" y="32"/>
<rect fill="rgba(0, 0, 0, 1)" height="5" width="5" x="37" y="32"/>
<rect fill="rgba(0, 0, 0, 1)" height="5" width="5" x="47" y="32"/>
<rect fill="rgba(0, 0, 0, 1)" height="5" width="5" x="57" y="32"/>
<rect fill="rgba(0, 0, 0, 1)" height="5" width="5" x="67" y="32"/>
<rect fill="rgba(0, 0, 0, 1)" height="5" width="5" x="77" y="32"/>
<rect fill="rgba(0, 0, 0, 1)" height="5" width="5" x="87" y="32"/>
<rect fill="rgba(0, 0, 0, 1)" height="5" width="5" x="97" y="32"/>
<rect fill="rgba(0, 0, 0, 1)" height="5" width="5" x="102" y="32"/>
<rect fill="rgba(0, 0, 0, 1)" height="5" width="5" x="107" y="32"/>
<rect fill="rgba(0, 0, 0, 1)" height="5" width="5" x="117" y="32"/>
<rect fill="rgba(0, 0, 0, 1)" height="5" width="5" x="132" y="32"/>
<rect fill="rgba(0, 0, 0, 1)" height="5" width="5" x="137" y="32"/>
<rect fill="rgba(0, 0, 0, 1)" height="5" width="5" x="157" y="32"/>
<rect fill="rgba(0, 0, 0, 1)" height="5" width="5" x="187" y="32"/>
<rect fill="rgba(0, 0, 0, 1)" height="5" width="5" x="7" y="37"/>
<rect fill="rgba(0, 0, 0, 1)" height="5" width="5" x="12" y="37"/>
<rect fill="rgba(0, 0, 0, 1)" height="5" width="5" x="17" y="37"/>
<rect fill="rgba(0, 0, 0, 1)" height="5" width="5" x="22" y="37"/>
<rect fill="rgba(0, 0, 0, 1)" height="5" width="5" x="27" y="37"/>
<rect fill="rgba(0, 0, 0, 1)" height="5" width="5" x="32" y="37"/>
<rect fill="rgba(0, 0, 0, 1)" height="5" width="5" x="37" y="37"/>
<rect fill="rgba(0, 0, 0, 1)" height="5" width="5" x="47" y="37"/>
<rect fill="rgba(0, 0, 0, 1)" height="5" width="5" x="57" y="37"/>
<rect fill="rgba(0, 0, 0, 1)" height="5" width="5" x="67" y="37"/>
<rect fill="rgba(0, 0, 0, 1)" height="5" width="5" x="77" y="37"/>
<rect fill="rgba(0, 0, 0, 1)" height="5" width="5" x="87" y="37"/>
<rect fill="rgba(0, 0, 0, 1)" height="5" width="5" x="97" y="37"/>
<rect fill="rgba(0, 0, 0, 1)" height="5" width="5" x="107" y="37"/>
<rect fill="rgba(0, 0, 0, 1)" height="5" width="5" x="117" y="37"/>
<rect fill="rgba(0, 0, 0, 1)" height="5" width="5" x="127" y="37"/>
<rect fill="rgba(0, 0, 0, 1)" height="5" width="5" x="137" y="37"/>
<rect fill="rgba(0, 0, 0, 1)" height="5" width="5" x="147" y="37"/>
<rect fill="rgba(0, 0, 0, 1)" height="5" width="5" x="157" y="37"/>
<rect fill="rgba(0, 0, 0, 1)" height="5" width="5" x="162" y="37"/>
<rect fill="rgba(0, 0, 0, 1)" height="5" width="5" x="167" y="37"/>
<rect fill="rgba(0, 0, 0, 1)" height="5" width="5" x="172" y="37"/>
<rect fill="rgba(0, 0, 0, 1)" height="5" width="5" x="177" y="37"/>
<rect fill="rgba(0, 0, 0, 1)" height="5" width="5" x="182" y="37"/>
<rect fill="rgba(0, 0, 0, 1)" height="5" width="5" x="187" y="37"/>
<rect fill="rgba(0, 0, 0, 1)" height="5" width="5" x="67" y="42"/>
<rect fill="rgba(0, 0, 0, 1)" height="5" width="5" x="72" y="42"/>
<rect fill="rgba(0, 0, 0, 1)" height="5" width="5" x="82" y="42"/>
<rect fill="rgba(0, 0, 0, 1)" height="5" width="5" x="87" y="42"/>
<rect fill="rgba(0, 0, 0, 1)" height="5" width="5" x="92" y="42"/>
<rect fill="rgba(0, 0, 0, 1)" height="5" width="5" x="107" y="42"/>
<rect fill="rgba(0, 0, 0, 1)" height="5" width="5" x="112" y="42"/>
<rect fill="rgba(0, 0, 0, 1)" height="5" width="5" x="137" y="42"/>
<rect fill="rgba(0, 0, 0, 1)" height="5" width="5" x="22" y="47"/>
<rect fill="rgba(0, 0, 0, 1)" height="5" width="5" x="37" y="47"/>
<rect fill="rgba(0, 0, 0, 1)" height="5" width="5" x="52" y="47"/>
<rect fill="rgba(0, 0, 0, 1)" height="5" width="5" x="62" y="47"/>
<rect fill="rgba(0, 0, 0, 1)" height="5" width="5" x="67" y="47"/>
<rect fill="rgba(0, 0, 0, 1)" height="5" width="5" x="72" y="47"/>
<rect fill="rgba(0, 0, 0, 1)" height="5" width="5" x="77" y="47"/>
<rect fill="rgba(0, 0, 0, 1)" height="5" width="5" x="87" y="47"/>
<rect fill="rgba(0, 0, 0, 1)" height="5" width="5" x="107" y="47"/>
<rect fill="rgba(0, 0, 0, 1)" height="5" width="5" x="112" y="47"/>
<rect fill="rgba(0, 0, 0, 1)" height="5" width="5" x="117" y="47"/>
<rect fill="rgba(0, 0, 0, 1)" height="5" width="5" x="147" y="47"/>
<rect fill="rgba(0, 0, 0, 1)" height="5" width="5" x="162" y="47"/>
<rect fill="rgba(0, 0, 0, 1)" height="5" width="5" x="167" y="47"/>
<rect fill="rgba(0, 0, 0, 1)" height="5" width="5" x="172" y="47"/>
<rect fill="rgba(0, 0, 0, 1)" height="5" width="5" x="182" y="47"/>
<rect fill="rgba(0, 0, 0, 1)" height="5" width="5" x="187" y="47"/>
<rect fill="rgba(0, 0, 0, 1)" height="5" width="5" x="17" y="52"/>
<rect fill="rgba(0, 0, 0, 1)" height="5" width="5" x="22" y="52"/>
<rect fill="rgba(0, 0, 0, 1)" height="5" width="5" x="27" y="52"/>
<rect fill="rgba(0, 0, 0, 1)" height="5" width="5" x="42" y="52"/>
<rect fill="rgba(0, 0, 0, 1)" height="5" width="5" x="57" y="52"/>
<rect fill="rgba(0, 0, 0, 1)" height="5" width="5" x="62" y="52"/>
<rect fill="rgba(0, 0, 0, 1)" height="5" width="5" x="67" y="52"/>
<rect fill="rgba(0, 0, 0, 1)" height="5" width="5" x="72" y="52"/>
<rect fill="rgba(0, 0, 0, 1)" height="5" width="5" x="82" y="52"/>
<rect fill="rgba(0, 0, 0, 1)" height="5" width="5" x="102" y="52"/>
<rect fill="rgba(0, 0, 0, 1)" height="5" width="5" x="107" y="52"/>
<rect fill="rgba(0, 0, 0, 1)" height="5" width="5" x="112" y="52"/>
<rect fill="rgba(0, 0, 0, 1)" height="5" width="5" x="117" y="52"/>
<rect fill="rgba(0, 0, 0, 1)" height="5" width="5" x="127" y="52"/>
<rect fill="rgba(0, 0, 0, 1)" height="5" width="5" x="132" y="52"/>
<rect fill="rgba(0, 0, 0, 1)" height="5" width="5" x="137" y="52"/>
<rect fill="rgba(0, 0, 0, 1)" height="5" width="5" x="142" y="52"/>
<rect fill="rgba(0, 0, 0, 1)" height="5" width="5" x="147" y="52"/>
<rect fill="rgba(0, 0, 0, 1)" height="5" width="5" x="162" y="52"/>
<rect fill="rgba(0, 0, 0, 1)" height="5" width="5" x="177" y="52"/>
<rect fill="rgba(0, 0, 0, 1)" height="5" width="5" x="182" y="52"/>
<rect fill="rgba(0, 0, 0, 1)" height="5" width="5" x="12" y="57"/>
<rect fill="rgba(0, 0, 0, 1)" height="5" width="5" x="22" y="57"/>
<rect fill="rgba(0, 0, 0, 1)" height="5" width="5" x="32" y="57"/>
<rect fill="rgba(0, 0, 0, 1)" height="5" width="5" x="37" y="57"/>
<rect fill="rgba(0, 0, 0, 1)" height="5" width="5" x="42" y="57"/>
<rect fill="rgba(0, 0, 0, 1)" height="5" width="5" x="62" y="57"/>
<rect fill="rgba(0, 0, 0, 1)" height="5" width="5" x="72" y="57"/>
<rect fill="rgba(0, 0, 0, 1)" height="5" width="5" x="77" y="57"/>
<rect fill="rgba(0, 0, 0, 1)" height="5" width="5" x="82" y="57"/>
<rect fill="rgba(0, 0, 0, 1)" height="5" width="5" x="87" y="57"/>
<rect fill="rgba(0, 0, 0, 1)" height="5" width="5" x="107" y="57"/>
<rect fill="rgba(0, 0, 0, 1)" height="5" width="5" x="112" y="57"/>
<rect fill="rgba(0, 0, 0, 1)" height="5" width="5" x="117" y="57"/>
<rect fill="rgba(0, 0, 0, 1)" height="5" width="5" x="132" y="57"/>
<rect fill="rgba(0, 0, 0, 1)" height="5" width="5" x="142" y="57"/>
<rect fill="rgba(0, 0, 0, 1)" height="5" width="5" x="152" y="57"/>
<rect fill="rgba(0, 0, 0, 1)" height="5" width="5" x="157" y="57"/>
<rect fill="rgba(0, 0, 0, 1)" height="5" width="5" x="167" y="57"/>
<rect fill="rgba(0, 0, 0, 1)" height="5" width="5" x="177" y="57"/>
<rect fill="rgba(0, 0, 0, 1)" height="5" width="5" x="182" y="57"/>
<rect fill="rgba(0, 0, 0, 1)" height="5" width="5" x="7" y="62"/>
<rect fill="rgba(0, 0, 0, 1)" height="5" width="5" x="12" y="62"/>
<rect fill="rgba(0, 0, 0, 1)" height="5" width="5" x="17" y="62"/>
<rect fill="rgba(0, 0, 0, 1)" height="5" width="5" x="22" y="62"/>
<rect fill="rgba(0, 0, 0, 1)" height="5" width="5" x="32" y="62"/>
<rect fill="rgba(0, 0, 0, 1)" height="5" width="5" x="52" y="62"/>
<rect fill="rgba(0, 0, 0, 1)" height="5" width="5" x="57" y="62"/>
<rect fill="rgba(0, 0, 0, 1)" height="5" width="5" x="67" y="62"/>
<rect fill="rgba(0, 0, 0, 1)" height="5" width="5" x="72" y="62"/>
<rect fill="rgba(0, 0, 0, 1)" height="5" width="5" x="82" y="62"/>
<rect fill="rgba(0, 0, 0, 1)" height="5" width="5" x="87" y="62"/>
<rect fill="rgba(0, 0, 0, 1)" height="5" width="5" x="92" y="62"/>
<rect fill="rgba(0, 0, 0, 1)" height="5" width="5" x="107" y="62"/>
<rect fill="rgba(0, 0, 0, 1)" height="5" width="5" x="132" y="62"/>
<rect fill="rgba(0, 0, 0, 1)" height="5" width="5" x="147" y="62"/>
<rect fill="rgba(0, 0, 0, 1)" height="5" width="5" x="157" y="62"/>
<rect fill="rgba(0, 0, 0, 1)" height="5" width="5" x="162" y="62"/>
<rect fill="rgba(0, 0, 0, 1)" height="5" width="5" x="167" y="62"/>
<rect fill="rgba(0, 0, 0, 1)" height="5" width="5" x="177" y="62"/>
<rect fill="rgba(0, 0, 0, 1)" height="5" width="5" x="187" y="62"/>
<rect fill="rgba(0, 0, 0, 1)" height="5" width="5" x="17" y="67"/>
<rect fill="rgba(0, 0, 0, 1)" height="5" width="5" x="22" y="67"/>
<rect fill="rgba(0, 0, 0, 1)" height="5" width="5" x="27" y="67"/>
<rect fill="rgba(0, 0, 0, 1)" height="5" width="5" x="32" y="67"/>
<rect fill="rgba(0, 0, 0, 1)" height="5" width="5" x="37" y="67"/>
<rect fill="rgba(0, 0, 0, 1)" height="5" width="5" x="47" y="67"/>
<rect fill="rgba(0, 0, 0, 1)" height="5" width="5" x="62" y="67"/>
<rect fill="rgba(0, 0, 0, 1)" height="5" width="5" x="87" y="67"/>
<rect fill="rgba(0, 0, 0, 1)" height="5" width="5" x="92" y="67"/>
<rect fill="rgba(0, 0, 0, 1)" height="5" width="5" x="97" y="67"/>
<rect fill="rgba(0, 0, 0, 1)" height="5" width="5" x="112" y="67"/>
<rect fill="rgba(0, 0, 0, 1)" height="5" width="5" x="117" y="67"/>
<rect fill="rgba(0, 0, 0, 1)" height="5" width="5" x="132" y="67"/>
<rect fill="rgba(0, 0, 0, 1)" height="5" width="5" x="142" y="67"/>
<rect fill="rgba(0, 0, 0, 1)" height="5" width="5" x="147" y="67"/>
<rect fill="rgba(0, 0, 0, 1)" height="5" width="5" x="152" y="67"/>
<rect fill="rgba(0, 0, 0, 1)" height="5" width="5" x="157" y="67"/>
<rect fill="rgba(0, 0, 0, 1)" height="5" width="5" x="162" y="67"/>
<rect fill="rgba(0, 0, 0, 1)" height="5" width="5" x="167" y="67"/>
<rect fill="rgba(0, 0, 0, 1)" height="5" width="5" x="177" y="67"/>
<rect fill="rgba(0, 0, 0, 1)" height="5" width="5" x="182" y="67"/>
<rect fill="rgba(0, 0, 0, 1)" height="5" width="5" x="7" y="72"/>
<rect fill="rgba(0, 0, 0, 1)" height="5" width="5" x="17" y="72"/>
<rect fill="rgba(0, 0, 0, 1)" height="5" width="5" x="22" y="72"/>
<rect fill="rgba(0, 0, 0, 1)" height="5" width="5" x="42" y="72"/>
<rect fill="rgba(0, 0, 0, 1)" height="5" width="5" x="57" y="72"/>
<rect fill="rgba(0, 0, 0, 1)" height="5" width="5" x="67" y="72"/>
<rect fill="rgba(0, 0, 0, 1)" height="5" width="5" x="72" y="72"/>
<rect fill="rgba(0, 0, 0, 1)" height="5" width="5" x="82" y="72"/>
<rect fill="rgba(0, 0, 0, 1)" height="5" width="5" x="87" y="72"/>
<rect fill="rgba(0, 0, 0, 1)" height="5" width="5" x="97" y="72"/>
<rect fill="rgba(0, 0, 0, 1)" height="5" width="5" x="107" y="72"/>
<rect fill="rgba(0, 0, 0, 1)" height="5" width="5" x="117" y="72"/>
<rect fill="rgba(0, 0, 0, 1)" height="5" width="5" x="127" y="72"/>
<rect fill="rgba(0, 0, 0, 1)" height="5" width="5" x="137" y="72"/>
<rect fill="rgba(0, 0, 0, 1)" height="5" width="5" x="142" y="72"/>
<rect fill="rgba(0, 0, 0, 1)" height="5" width="5" x="172" y="72"/>
<rect fill="rgba(0, 0, 0, 1)" height="5" width="5" x="177" y="72"/>
<rect fill="rgba(0, 0, 0, 1)" height="5" width="5" x="17" y="77"/>
<rect fill="rgba(0, 0, 0, 1)" height="5" width="5" x="22" y="77"/>
<rect fill="rgba(0, 0, 0, 1)" height="5" width="5" x="27" y="77"/>
<rect fill="rgba(0, 0, 0, 1)" height="5" width="5" x="37" y="77"/>
<rect fill="rgba(0, 0, 0, 1)" height="5" width="5" x="47" y="77"/>
<rect fill="rgba(0, 0, 0, 1)" height="5" width="5" x="57" y="77"/>
<rect fill="rgba(0, 0, 0, 1)" height="5" width="5" x="67" y="77"/>
<rect fill="rgba(0, 0, 0, 1)" height="5" width="5" x="72" y="77"/>
<rect fill="rgba(0, 0, 0, 1)" height="5" width="5" x="82" y="77"/>
<rect fill="rgba(0, 0, 0, 1)" height="5" width="5" x="92" y="77"/>
<rect fill="rgba(0, 0, 0, 1)" height="5" width="5" x="102" y="77"/>
<rect fill="rgba(0, 0, 0, 1)" height="5" width="5" x="112" y="77"/>
<rect fill="rgba(0, 0, 0, 1)" height="5" width="5" x="122" y="77"/>
<rect fill="rgba(0, 0, 0, 1)" height="5" width="5" x="142" y="77"/>
<rect fill="rgba(0, 0, 0, 1)" height="5" width="5" x="147" y="77"/>
<rect fill="rgba(0, 0, 0, 1)" height="5" width="5" x="152" y="77"/>
<rect fill="rgba(0, 0, 0, 1)" height="5" width="5" x="157" y="77"/>
<rect fill="rgba(0, 0, 0, 1)" height="5" width="5" x="162" y="77"/>
<rect fill="rgba(0, 0, 0, 1)" height="5" width="5" x="172" y="77"/>
<rect fill="rgba(0, 0, 0, 1)" height="5" width="5" x="177" y="77"/>
<rect fill="rgba(0, 0, 0, 1)" height="5" width="5" x="182" y="77"/>
<rect fill="rgba(0, 0, 0, 1)" height="5" width="5" x="187" y="77"/>
<rect fill="rgba(0, 0, 0, 1)" height="5" width="5" x="12" y="82"/>
<rect fill="rgba(0, 0, 0, 1)" height="5" width="5" x="22" y="82"/>
<rect fill="rgba(0, 0, 0, 1)" height="5" width="5" x="42" y="82"/>
<rect fill="rgba(0, 0, 0, 1)" height="5" width="5" x="52" y="82"/>
<rect fill="rgba(0, 0, 0, 1)" height="5" width="5" x="57" y="82"/>
<rect fill="rgba(0, 0, 0, 1)" height="5" width="5" x="62" y="82"/>
<rect fill="rgba(0, 0, 0, 1)" height="5" width="5" x="67" y="82"/>
<rect fill="rgba(0, 0, 0, 1)" height="5" width="5" x="77" y="82"/>
<rect fill="rgba(0, 0, 0, 1)" height="5" width="5" x="82" y="82"/>
<rect fill="rgba(0, 0, 0, 1)" height="5" width="5" x="87" y="82"/>
<rect fill="rgba(0, 0, 0, 1)" height="5" width="5" x="102" y="82"/>
<rect fill="rgba(0, 0, 0, 1)" height="5" width="5" x="112" y="82"/>
<rect fill="rgba(0, 0, 0, 1)" height="5" width="5" x="122" y="82"/>
<rect fill="rgba(0, 0, 0, 1)" height="5" width="5" x="132" y="82"/>
<rect fill="rgba(0, 0, 0, 1)" height="5" width="5" x="137" y="82"/>
<rect fill="rgba(0, 0, 0, 1)" height="5" width="5" x="147" y="82"/>
<rect fill="rgba(0, 0, 0, 1)" height="5" width="5" x="162" y="82"/>
<rect fill="rgba(0, 0, 0, 1)" height="5" width="5" x="7" y="87"/>
<rect fill="rgba(0, 0, 0, 1)" height="5" width="5" x="17" y="87"/>
<rect fill="rgba(0, 0, 0, 1)" height="5" width="5" x="22" y="87"/>
<rect fill="rgba(0, 0, 0, 1)" height="5" width="5" x="32" y="87"/>
<rect fill="rgba(0, 0, 0, 1)" height="5" width="5" x="37" y="87"/>
<rect fill="rgba(0, 0, 0, 1)" height="5" width="5" x="57" y="87"/>
<rect fill="rgba(0, 0, 0, 1)" height="5" width="5" x="62" y="87"/>
<rect fill="rgba(0, 0, 0, 1)" height="5" width="5" x="77" y="87"/>
<rect fill="rgba(0, 0, 0, 1)" height="5" width="5" x="92" y="87"/>
<rect fill="rgba(0, 0, 0, 1)" height="5" width="5" x="97" y="87"/>
<rect fill="rgba(0, 0, 0, 1)" height="5" width="5" x="102" y="87"/>
<rect fill="rgba(0, 0, 0, 1)" height="5" width="5" x="112" y="87"/>
<rect fill="rgba(0, 0, 0, 1)" height="5" width="5" x="117" y="87"/>
<rect fill="rgba(0, 0, 0, 1)" height="5" width="5" x="132" y="87"/>
<rect fill="rgba(0, 0, 0, 1)" height="5" width="5" x="137" y="87"/>
<rect fill="rgba(0, 0, 0, 1)" height="5" width="5" x="142" y="87"/>
<rect fill="rgba(0, 0, 0, 1)" height="5" width="5" x="147" y="87"/>
<rect fill="rgba(0, 0, 0, 1)" height="5" width="5" x="157" y="87"/>
<rect fill="rgba(0, 0, 0, 1)" height="5" width="5" x="162" y="87"/>
<rect fill="rgba(0, 0, 0, 1)" height="5" width="5" x="167" y="87"/>
<rect fill="rgba(0, 0, 0, 1)" height="5" width="5" x="187" y="87"/>
<rect fill="rgba(0, 0, 0, 1)" height="5" width="5" x="7" y="92"/>
<rect fill="rgba(0, 0, 0, 1)" height="5" width="5" x="12" y="92"/>
<rect fill="rgba(0, 0, 0, 1)" height="5" width="5" x="22" y="92"/>
<rect fill="rgba(0, 0, 0, 1)" height="5" width="5" x="27" y="92"/>
<rect fill="rgba(0, 0, 0, 1)" height="5" width="5" x="32" y="92"/>
<rect fill="rgba(0, 0, 0, 1)" height="5" width="5" x="67" y="92"/>
<rect fill="rgba(0, 0, 0, 1)" height="5" width="5" x="82" y="92"/>
<rect fill="rgba(0, 0, 0, 1)" height="5" width="5" x="87" y="92"/>
<rect fill="rgba(0, 0, 0, 1)" height="5" width="5" x="92" y="92"/>
<rect fill="rgba(0, 0, 0, 1)" height="5" width="5" x="97" y="92"/>
<rect fill="rgba(0, 0, 0, 1)" height="5" width="5" x="102" y="92"/>
<rect fill="rgba(0, 0, 0, 1)" height="5" width="5" x="112" y="92"/>
<rect fill="rgba(0, 0, 0, 1)" height="5" width="5" x="122" y="92"/>
<rect fill="rgba(0, 0, 0, 1)" height="5" width="5" x="142" y="92"/>
<rect fill="rgba(0, 0, 0, 1)" height="5" width="5" x="152" y="92"/>
<rect fill="rgba(0, 0, 0, 1)" height="5" width="5" x="177" y="92"/>
<rect fill="rgba(0, 0, 0, 1)" height="5" width="5" x="187" y="92"/>
<rect fill="rgba(0, 0, 0, 1)" height="5" width="5" x="7" y="97"/>
<rect fill="rgba(0, 0, 0, 1)" height="5" width="5" x="12" y="97"/>
<rect fill="rgba(0, 0, 0, 1)" height="5" width="5" x="17" y="97"/>
<rect fill="rgba(0, 0, 0, 1)" height="5" width="5" x="22" y="97"/>
<rect fill="rgba(0, 0, 0, 1)" height="5" width="5" x="27" y="97"/>
<rect fill="rgba(0, 0, 0, 1)" height="5" width="5" x="32" y="97"/>
<rect fill="rgba(0, 0, 0, 1)" height="5" width="5" x="37" y="97"/>
<rect fill="rgba(0, 0, 0, 1)" height="5" width="5" x="42" y="97"/>
<rect fill="rgba(0, 0, 0, 1)" height="5" width="5" x="47" y="97"/>
<rect fill="rgba(0, 0, 0, 1)" height="5" width="5" x="52" y="97"/>
<rect fill="rgba(0, 0, 0, 1)" height="5" width="5" x="72" y="97"/>
<rect fill="rgba(0, 0, 0, 1)" height="5" width="5" x="77" y="97"/>
<rect fill="rgba(0, 0, 0, 1)" height="5" width="5" x="92" y="97"/>
<rect fill="rgba(0, 0, 0, 1)" height="5" width="5" x="102" y="97"/>
<rect fill="rgba(0, 0, 0, 1)" height="5" width="5" x="122" y="97"/>
<rect fill="rgba(0, 0, 0, 1)" height="5" width="5" x="127" y="97"/>
<rect fill="rgba(0, 0, 0, 1)" height="5" width="5" x="132" y="97"/>
<rect fill="rgba(0, 0, 0, 1)" height="5" width="5" x="152" y="97"/>
<rect fill="rgba(0, 0, 0, 1)" height="5" width="5" x="187" y="97"/>
<rect fill="rgba(0, 0, 0, 1)" height="5" width="5" x="12" y="102"/>
<rect fill="rgba(0, 0, 0, 1)" height="5" width="5" x="22" y="102"/>
<rect fill="rgba(0, 0, 0, 1)" height="5" width="5" x="32" y="102"/>
<rect fill="rgba(0, 0, 0, 1)" height="5" width="5" x="42" y="102"/>
<rect fill="rgba(0, 0, 0, 1)" height="5" width="5" x="57" y="102"/>
<rect fill="rgba(0, 0, 0, 1)" height="5" width="5" x="77" y="102"/>
<rect fill="rgba(0, 0, 0, 1)" height="5" width="5" x="82" y="102"/>
<rect fill="rgba(0, 0, 0, 1)" height="5" width="5" x="92" y="102"/>
<rect fill="rgba(0, 0, 0, 1)" height="5" width="5" x="97" y="102"/>
<rect fill="rgba(0, 0, 0, 1)" height="5" width="5" x="102" y="102"/>
<rect fill="rgba(0, 0, 0, 1)" height="5" width="5" x="107" y="102"/>
<rect fill="rgba(0, 0, 0, 1)" height="5" width="5" x="112" y="102"/>
<rect fill="rgba(0, 0, 0, 1)" height="5" width="5" x="117" y="102"/>
<rect fill="rgba(0, 0, 0, 1)" height="5" width="5" x="132" y="102"/>
<rect fill="rgba(0, 0, 0, 1)" height="5" width="5" x="142" y="102"/>
<rect fill="rgba(0, 0, 0, 1)" height="5" width="5" x="147" y="102"/>
<rect fill="rgba(0, 0, 0, 1)" height="5" width="5" x="152" y="102"/>
<rect fill="rgba(0, 0, 0, 1)" height="5" width="5" x="157" y="102"/>
<rect fill="rgba(0, 0, 0, 1)" height="5" width="5" x="162" y="102"/>
<rect fill="rgba(0, 0, 0, 1)" height="5" width="5" x="167" y="102"/>
<rect fill="rgba(0, 0, 0, 1)" height="5" width="5" x="182" y="102"/>
<rect fill="rgba(0, 0, 0, 1)" height="5" width="5" x="187" y="102"/>
<rect fill="rgba(0, 0, 0, 1)" height="5" width="5" x="12" y="107"/>
<rect fill="rgba(0, 0, 0, 1)" height="5" width="5" x="17" y="107"/>
<rect fill="rgba(0, 0, 0, 1)" height="5" width="5" x="37" y="107"/>
<rect fill="rgba(0, 0, 0, 1)" height="5" width="5" x="42" y="107"/>
<rect fill="rgba(0, 0, 0, 1)" height="5" width="5" x="47" y="107"/>
<rect fill="rgba(0, 0, 0, 1)" height="5" width="5" x="57" y="107"/>
<rect fill="rgba(0, 0, 0, 1)" height="5" width="5" x="72" y="107"/>
<rect fill="rgba(0, 0, 0, 1)" height="5" width="5" x="87" y="107"/>
<rect fill="rgba(0, 0, 0, 1)" height="5" width="5" x="97" y="107"/>
<rect fill="rgba(0, 0, 0, 1)" height="5" width="5" x="107" y="107"/>
<rect fill="rgba(0, 0, 0, 1)" height="5" width="5" x="137" y="107"/>
<rect fill="rgba(0, 0, 0, 1)" height="5" width="5" x="147" y="107"/>
<rect fill="rgba(0, 0, 0, 1)" height="5" width="5" x="177" y="107"/>
<rect fill="rgba(0, 0, 0, 1)" height="5" width="5" x="182" y="107"/>
<rect fill="rgba(0, 0, 0, 1)" height="5" width="5" x="187" y="107"/>
<rect fill="rgba(0, 0, 0, 1)" height="5" width="5" x="7" y="112"/>
<rect fill="rgba(0, 0, 0, 1)" height="5" width="5" x="17" y="112"/>
<rect fill="rgba(0, 0, 0, 1)" height="5" width="5" x="22" y="112"/>
<rect fill="rgba(0, 0, 0, 1)" height="5" width="5" x="32" y="112"/>
<rect fill="rgba(0, 0, 0, 1)" height="5" width="5" x="47" y="112"/>
<rect fill="rgba(0, 0, 0, 1)" height="5" width="5" x="62" y="112"/>
<rect fill="rgba(0, 0, 0, 1)" height="5" width="5" x="67" y="112"/>
<rect fill="rgba(0, 0, 0, 1)" height="5" width="5" x="82" y="112"/>
<rect fill="rgba(0, 0, 0, 1)" height="5" width="5" x="92" y="112"/>
<rect fill="rgba(0, 0, 0, 1)" height="5" width="5" x="102" y="112"/>
<rect fill="rgba(0, 0, 0, 1)" height="5" width="5" x="107" y="112"/>
<rect fill="rgba(0, 0, 0, 1)" height="5" width="5" x="112" y="112"/>
<rect fill="rgba(0, 0, 0, 1)" height="5" width="5" x="122" y="112"/>
<rect fill="rgba(0, 0, 0, 1)" height="5" width="5" x="142" y="112"/>
<rect fill="rgba(0, 0, 0, 1)" height="5" width="5" x="147" y="112"/>
<rect fill="rgba(0, 0, 0, 1)" height="5" width="5" x="152" y="112"/>
<rect fill="rgba(0, 0, 0, 1)" height="5" width="5" x="162" y="112"/>
<rect fill="rgba(0, 0, 0, 1)" height="5" width="5" x="167" y="112"/>
<rect fill="rgba(0, 0, 0, 1)" height="5" width="5" x="172" y="112"/>
<rect fill="rgba(0, 0, 0, 1)" height="5" width="5" x="7" y="117"/>
<rect fill="rgba(0, 0, 0, 1)" height="5" width="5" x="22" y="117"/>
<rect fill="rgba(0, 0, 0, 1)" height="5" width="5" x="32" y="117"/>
<rect fill="rgba(0, 0, 0, 1)" height="5" width="5" x="37" y="117"/>
<rect fill="rgba(0, 0, 0, 1)" height="5" width="5" x="47" y="117"/>
<rect fill="rgba(0, 0, 0, 1)" height="5" width="5" x="77" y="117"/>
<rect fill="rgba(0, 0, 0, 1)" height="5" width="5" x="92" y="117"/>
<rect fill="rgba(0, 0, 0, 1)" height="5" width="5" x="117" y="117"/>
<rect fill="rgba(0, 0, 0, 1)" height="5" width="5" x="127" y="117"/>
<rect fill="rgba(0, 0, 0, 1)" height="5" width="5" x="142" y="117"/>
<rect fill="rgba(0, 0, 0, 1)" height="5" width="5" x="152" y="117"/>
<rect fill="rgba(0, 0, 0, 1)" height="5" width="5" x="162" y="117"/>
<rect fill="rgba(0, 0, 0, 1)" height="5" width="5" x="167" y="117"/>
<rect fill="rgba(0, 0, 0, 1)" height="5" width="5" x="172" y="117"/>
<rect fill="rgba(0, 0, 0, 1)" height="5" width="5" x="187" y="117"/>
<rect fill="rgba(0, 0, 0, 1)" height="5" width="5" x="17" y="122"/>
<rect fill="rgba(0, 0, 0, 1)" height="5" width="5" x="22" y="122"/>
<rect fill="rgba(0, 0, 0, 1)" height="5" width="5" x="27" y="122"/>
<rect fill="rgba(0, 0, 0, 1)" height="5" width="5" x="47" y="122"/>
<rect fill="rgba(0, 0, 0, 1)" height="5" width="5" x="52" y="122"/>
<rect fill="rgba(0, 0, 0, 1)" height="5" width="5" x="57" y="122"/>
<rect fill="rgba(0, 0, 0, 1)" height="5" width="5" x="62" y="122"/>
<rect fill="rgba(0, 0, 0, 1)" height="5" width="5" x="72" y="122"/>
<rect fill="rgba(0, 0, 0, 1)" height="5" width="5" x="82" y="122"/>
<rect fill="rgba(0, 0, 0, 1)" height="5" width="5" x="92" y="122"/>
<rect fill="rgba(0, 0, 0, 1)" height="5" width="5" x="97" y="122"/>
<rect fill="rgba(0, 0, 0, 1)" height="5" width="5" x="112" y="122"/>
<rect fill="rgba(0, 0, 0, 1)" height="5" width="5" x="122" y="122"/>
<rect fill="rgba(0, 0, 0, 1)" height="5" width="5" x="137" y="122"/>
<rect fill="rgba(0, 0, 0, 1)" height="5" width="5" x="147" y="122"/>
<rect fill="rgba(0, 0, 0, 1)" height="5" width="5" x="157" y="122"/>
<rect fill="rgba(0, 0, 0, 1)" height="5" width="5" x="167" y="122"/>
<rect fill="rgba(0, 0, 0, 1)" height="5" width="5" x="172" y="122"/>
<rect fill="rgba(0, 0, 0, 1)" height="5" width="5" x="182" y="122"/>
<rect fill="rgba(0, 0, 0, 1)" height="5" width="5" x="12" y="127"/>
<rect fill="rgba(0, 0, 0, 1)" height="5" width="5" x="17" y="127"/>
<rect fill="rgba(0, 0, 0, 1)" height="5" width="5" x="22" y="127"/>
<rect fill="rgba(0, 0, 0, 1)" height="5" width="5" x="27" y="127"/>
<rect fill="rgba(0, 0, 0, 1)" height="5" width="5" x="32" y="127"/>
<rect fill="rgba(0, 0, 0, 1)" height="5" width="5" x="37" y="127"/>
<rect fill="rgba(0, 0, 0, 1)" height="5" width="5" x="42" y="127"/>
<rect fill="rgba(0, 0, 0, 1)" height="5" width="5" x="52" y="127"/>
<rect fill="rgba(0, 0, 0, 1)" height="5" width="5" x="62" y="127"/>
<rect fill="rgba(0, 0, 0, 1)" height="5" width="5" x="72" y="127"/>
<rect fill="rgba(0, 0, 0, 1)" height="5" width="5" x="77" y="127"/>
<rect fill="rgba(0, 0, 0, 1)" height="5" width="5" x="122" y="127"/>
<rect fill="rgba(0, 0, 0, 1)" height="5" width="5" x="127" y="127"/>
<rect fill="rgba(0, 0, 0, 1)" height="5" width="5" x="152" y="127"/>
<rect fill="rgba(0, 0, 0, 1)" height="5" width="5" x="167" y="127"/>
<rect fill="rgba(0, 0, 0, 1)" height="5" width="5" x="172" y="127"/>
<rect fill="rgba(0, 0, 0, 1)" height="5" width="5" x="177" y="127"/>
<rect fill="rgba(0, 0, 0, 1)" height="5" width="5" x="187" y="127"/>
<rect fill="rgba(0, 0, 0, 1)" height="5" width="5" x="12" y="132"/>
<rect fill="rgba(0, 0, 0, 1)" height="5" width="5" x="17" y="132"/>
<rect fill="rgba(0, 0, 0, 1)" height="5" width="5" x="22" y="132"/>
<rect fill="rgba(0, 0, 0, 1)" height="5" width="5" x="42" y="132"/>
<rect fill="rgba(0, 0, 0, 1)" height="5" width="5" x="52" y="132"/>
<rect fill="rgba(0, 0, 0, 1)" height="5" width="5" x="57" y="132"/>
<rect fill="rgba(0, 0, 0, 1)" height="5" width="5" x="62" y="132"/>
<rect fill="rgba(0, 0, 0, 1)" height="5" width="5" x="67" y="132"/>
<rect fill="rgba(0, 0, 0, 1)" height="5" width="5" x="72" y="132"/>
<rect fill="rgba(0, 0, 0, 1)" height="5" width="5" x="82" y="132"/>
<rect fill="rgba(0, 0, 0, 1)" height="5" width="5" x="97" y="132"/>
<rect fill="rgba(0, 0, 0, 1)" height="5" width="5" x="117" y="132"/>
<rect fill="rgba(0, 0, 0, 1)" height="5" width="5" x="122" y="132"/>
<rect fill="rgba(0, 0, 0, 1)" height="5" width="5" x="127" y="132"/>
<rect fill="rgba(0, 0, 0, 1)" height="5" width="5" x="142" y="132"/>
<rect fill="rgba(0, 0, 0, 1)" height="5" width="5" x="147" y="132"/>
<rect fill="rgba(0, 0, 0, 1)" height="5" width="5" x="152" y="132"/>
<rect fill="rgba(0, 0, 0, 1)" height="5" width="5" x="162" y="132"/>
<rect fill="rgba(0, 0, 0, 1)" height="5" width="5" x="167" y="132"/>
<rect fill="rgba(0, 0, 0, 1)" height="5" width="5" x="172" y="132"/>
<rect fill="rgba(0, 0, 0, 1)" height="5" width="5" x="177" y="132"/>
<rect fill="rgba(0, 0, 0, 1)" height="5" width="5" x="7" y="137"/>
<rect fill="rgba(0, 0, 0, 1)" height="5" width="5" x="22" y="137"/>
<rect fill="rgba(0, 0, 0, 1)" height="5" width="5" x="37" y="137"/>
<rect fill="rgba(0, 0, 0, 1)" height="5" width="5" x="42" y="137"/>
<rect fill="rgba(0, 0, 0, 1)" height="5" width="5" x="52" y="137"/>
<rect fill="rgba(0, 0, 0, 1)" height="5" width="5" x="57" y="137"/>
<rect fill="rgba(0, 0, 0, 1)" height="5" width="5" x="77" y="137"/>
<rect fill="rgba(0, 0, 0, 1)" height="5" width="5" x="107" y="137"/>
<rect fill="rgba(0, 0, 0, 1)" height="5" width="5" x="127" y="137"/>
<rect fill="rgba(0, 0, 0, 1)" height="5" width="5" x="157" y="137"/>
<rect fill="rgba(0, 0, 0, 1)" height="5" width="5" x="167" y="137"/>
<rect fill="rgba(0, 0, 0, 1)" height="5" width="5" x="172" y="137"/>
<rect fill="rgba(0, 0, 0, 1)" height="5" width="5" x="177" y="137"/>
<rect fill="rgba(0, 0, 0, 1)" height="5" width="5" x="182" y="137"/>
<rect fill="rgba(0, 0, 0, 1)" height="5" width="5" x="187" y="137"/>
<rect fill="rgba(0, 0, 0, 1)" height="5" width="5" x="12" y="142"/>
<rect fill="rgba(0, 0, 0, 1)" height="5" width="5" x="17" y="142"/>
<rect fill="rgba(0, 0, 0, 1)" height="5" width="5" x="42" y="142"/>
<rect fill="rgba(0, 0, 0, 1)" height="5" width="5" x="47" y="142"/>
<rect fill="rgba(0, 0, 0, 1)" height="5" width="5" x="77" y="142"/>
<rect fill="rgba(0, 0, 0, 1)" height="5" width="5" x="82" y="142"/>
<rect fill="rgba(0, 0, 0, 1)" height="5" width="5" x="87" y="142"/>
<rect fill="rgba(0, 0, 0, 1)" height="5" width="5" x="107" y="142"/>
<rect fill="rgba(0, 0, 0, 1)" height="5" width="5" x="127" y="142"/>
<rect fill="rgba(0, 0, 0, 1)" height="5" width="5" x="132" y="142"/>
<rect fill="rgba(0, 0, 0, 1)" height="5" width="5" x="142" y="142"/>
<rect fill="rgba(0, 0, 0, 1)" height="5" width="5" x="152" y="142"/>
<rect fill="rgba(0, 0, 0, 1)" height="5" width="5" x="157" y="142"/>
<rect fill="rgba(0, 0, 0, 1)" height="5" width="5" x="167" y="142"/>
<rect fill="rgba(0, 0, 0, 1)" height="5" width="5" x="172" y="142"/>
<rect fill="rgba(0, 0, 0, 1)" height="5" width="5" x="7" y="147"/>
<rect fill="rgba(0, 0, 0, 1)" height="5" width="5" x="12" y="147"/>
<rect fill="rgba(0, 0, 0, 1)" height="5" width="5" x="22" y="147"/>
<rect fill="rgba(0, 0, 0, 1)" height="5" width="5" x="27" y="147"/>
<rect fill="rgba(0, 0, 0, 1)" height="5" width="5" x="37" y="147"/>
<rect fill="rgba(0, 0, 0, 1)" height="5" width="5" x="42" y="147"/>
<rect fill="rgba(0, 0, 0, 1)" height="5" width="5" x="47" y="147"/>
<rect fill="rgba(0, 0, 0, 1)" height="5" width="5" x="57" y="147"/>
<rect fill="rgba(0, 0, 0, 1)" height="5" width="5" x="67" y="147"/>
<rect fill="rgba(0, 0, 0, 1)" height="5" width="5" x="77" y="147"/>
<rect fill="rgba(0, 0, 0, 1)" height="5" width="5" x="87" y="147"/>
<rect fill="rgba(0, 0, 0, 1)" height="5" width="5" x="92" y="147"/>
<rect fill="rgba(0, 0, 0, 1)" height="5" width="5" x="97" y="147"/>
<rect fill="rgba(0, 0, 0, 1)" height="5" width="5" x="107" y="147"/>
<rect fill="rgba(0, 0, 0, 1)" height="5" width="5" x="112" y="147"/>
<rect fill="rgba(0, 0, 0, 1)" height="5" width="5" x="117" y="147"/>
<rect fill="rgba(0, 0, 0, 1)" height="5" width="5" x="122" y="147"/>
<rect fill="rgba(0, 0, 0, 1)" height="5" width="5" x="127" y="147"/>
<rect fill="rgba(0, 0, 0, 1)" height="5" width="5" x="132" y="147"/>
<rect fill="rgba(0, 0, 0, 1)" height="5" width="5" x="137" y="147"/>
<rect fill="rgba(0, 0, 0, 1)" height="5" width="5" x="147" y="147"/>
<rect fill="rgba(0, 0, 0, 1)" height="5" width="5" x="152" y="147"/>
<rect fill="rgba(0, 0, 0, 1)" height="5" width="5" x="157" y="147"/>
<rect fill="rgba(0, 0, 0, 1)" height="5" width="5" x="162" y="147"/>
<rect fill="rgba(0, 0, 0, 1)" height="5" width="5" x="167" y="147"/>
<rect fill="rgba(0, 0, 0, 1)" height="5" width="5" x="172" y="147"/>
<rect fill="rgba(0, 0, 0, 1)" height="5" width="5" x="187" y="147"/>
<rect fill="rgba(0, 0, 0, 1)" height="5" width="5" x="47" y="152"/>
<rect fill="rgba(0, 0, 0, 1)" height="5" width="5" x="52" y="152"/>
<rect fill="rgba(0, 0, 0, 1)" height="5" width="5" x="62" y="152"/>
<rect fill="rgba(0, 0, 0, 1)" height="5" width="5" x="67" y="152"/>
<rect fill="rgba(0, 0, 0, 1)" height="5" width="5" x="72" y="152"/>
<rect fill="rgba(0, 0, 0, 1)" height="5" width="5" x="77" y="152"/>
<rect fill="rgba(0, 0, 0, 1)" height="5" width="5" x="82" y="152"/>
<rect fill="rgba(0, 0, 0, 1)" height="5" width="5" x="87" y="152"/>
<rect fill="rgba(0, 0, 0, 1)" height="5" width="5" x="92" y="152"/>
<rect fill="rgba(0, 0, 0, 1)" height="5" width="5" x="97" y="152"/>
<rect fill="rgba(0, 0, 0, 1)" height="5" width="5" x="102" y="152"/>
<rect fill="rgba(0, 0, 0, 1)" height="5" width="5" x="107" y="152"/>
<rect fill="rgba(0, 0, 0, 1)" height="5" width="5" x="112" y="152"/>
<rect fill="rgba(0, 0, 0, 1)" height="5" width="5" x="117" y="152"/>
<rect fill="rgba(0, 0, 0, 1)" height="5" width="5" x="127" y="152"/>
<rect fill="rgba(0, 0, 0, 1)" height="5" width="5" x="137" y="152"/>
<rect fill="rgba(0, 0, 0, 1)" height="5" width="5" x="147" y="152"/>
<rect fill="rgba(0, 0, 0, 1)" height="5" width="5" x="167" y="152"/>
<rect fill="rgba(0, 0, 0, 1)" height="5" width="5" x="172" y="152"/>
<rect fill="rgba(0, 0, 0, 1)" height="5" width="5" x="7" y="157"/>
<rect fill="rgba(0, 0, 0, 1)" height="5" width="5" x="12" y="157"/>
<rect fill="rgba(0, 0, 0, 1)" height="5" width="5" x="17" y="157"/>
<rect fill="rgba(0, 0, 0, 1)" height="5" width="5" x="22" y="157"/>
<rect fill="rgba(0, 0, 0, 1)" height="5" width="5" x="27" y="157"/>
<rect fill="rgba(0, 0, 0, 1)" height="5" width="5" x="32" y="157"/>
<rect fill="rgba(0, 0, 0, 1)" height="5" width="5" x="37" y="157"/>
<rect fill="rgba(0, 0, 0, 1)" height="5" width="5" x="52" y="157"/>
<rect fill="rgba(0, 0, 0, 1)" height="5" width="5" x="57" y="157"/>
<rect fill="rgba(0, 0, 0, 1)" height="5" width="5" x="92" y="157"/>
<rect fill="rgba(0, 0, 0, 1)" height="5" width="5" x="107" y="157"/>
<rect fill="rgba(0, 0, 0, 1)" height="5" width="5" x="112" y="157"/>
<rect fill="rgba(0, 0, 0, 1)" height="5" width="5" x="122" y="157"/>
<rect fill="rgba(0, 0, 0, 1)" height="5" width="5" x="127" y="157"/>
<rect fill="rgba(0, 0, 0, 1)" height="5" width="5" x="132" y="157"/>
<rect fill="rgba(0, 0, 0, 1)" height="5" width="5" x="147" y="157"/>
<rect fill="rgba(0, 0, 0, 1)" height="5" width="5" x="157" y="157"/>
<rect fill="rgba(0, 0, 0, 1)" height="5" width="5" x="167" y="157"/>
<rect fill="rgba(0, 0, 0, 1)" height="5" width="5" x="177" y="157"/>
<rect fill="rgba(0, 0, 0, 1)" height="5" width="5" x="182" y="157"/>
<rect fill="rgba(0, 0, 0, 1)" height="5" width="5" x="7" y="162"/>
<rect fill="rgba(0, 0, 0, 1)" height="5" width="5" x="37" y="162"/>
<rect fill="rgba(0, 0, 0, 1)" height="5" width="5" x="57" y="162"/>
<rect fill="rgba(0, 0, 0, 1)" height="5" width="5" x="62" y="162"/>
<rect fill="rgba(0, 0, 0, 1)" height="5" width="5" x="72" y="162"/>
<rect fill="rgba(0, 0, 0, 1)" height="5" width="5" x="77" y="162"/>
<rect fill="rgba(0, 0, 0, 1)" height="5" width="5" x="82" y="162"/>
<rect fill="rgba(0, 0, 0, 1)" height="5" width="5" x="102" y="162"/>
<rect fill="rgba(0, 0, 0, 1)" height="5" width="5" x="117" y="162"/>
<rect fill="rgba(0, 0, 0, 1)" height="5" width="5" x="127" y="162"/>
<rect fill="rgba(0, 0, 0, 1)" height="5" width="5" x="132" y="162"/>
<rect fill="rgba(0, 0, 0, 1)" height="5" width="5" x="142" y="162"/>
<rect fill="rgba(0, 0, 0, 1)" height="5" width="5" x="147" y="162"/>
<rect fill="rgba(0, 0, 0, 1)" height="5" width="5" x="167" y="162"/>
<rect fill="rgba(0, 0, 0, 1)" height="5" width="5" x="177" y="162"/>
<rect fill="rgba(0, 0, 0, 1)" height="5" width="5" x="182" y="162"/>
<rect fill="rgba(0, 0, 0, 1)" height="5" width="5" x="187" y="162"/>
<rect fill="rgba(0, 0, 0, 1)" height="5" width="5" x="7" y="167"/>
<rect fill="rgba(0, 0, 0, 1)" height="5" width="5" x="17" y="167"/>
<rect fill="rgba(0, 0, 0, 1)" height="5" width="5" x="22" y="167"/>
<rect fill="rgba(0, 0, 0, 1)" height="5" width="5" x="27" y="167"/>
<rect fill="rgba(0, 0, 0, 1)" height="5" width="5" x="37" y="167"/>
<rect fill="rgba(0, 0, 0, 1)" height="5" width="5" x="97" y="167"/>
<rect fill="rgba(0, 0, 0, 1)" height="5" width="5" x="107" y="167"/>
<rect fill="rgba(0, 0, 0, 1)" height="5" width="5" x="137" y="167"/>
<rect fill="rgba(0, 0, 0, 1)" height="5" width="5" x="147" y="167"/>
<rect fill="rgba(0, 0, 0, 1)" height="5" width="5" x="152" y="167"/>
<rect fill="rgba(0, 0, 0, 1)" height="5" width="5" x="157" y="167"/>
<rect fill="rgba(0, 0, 0, 1)" height="5" width="5" x="162" y="167"/>
<rect fill="rgba(0, 0, 0, 1)" height="5" width="5" x="167" y="167"/>
<rect fill="rgba(0, 0, 0, 1)" height="5" width="5" x="7" y="172"/>
<rect fill="rgba(0, 0, 0, 1)" height="5" width="5" x="17" y="172"/>
<rect fill="rgba(0, 0, 0, 1)" height="5" width="5" x="22" y="172"/>
<rect fill="rgba(0, 0, 0, 1)" height="5" width="5" x="27" y="172"/>
<rect fill="rgba(0, 0, 0, 1)" height="5" width="5" x="37" y="172"/>
<rect fill="rgba(0, 0, 0, 1)" height="5" width="5" x="47" y="172"/>
<rect fill="rgba(0, 0, 0, 1)" height="5" width="5" x="52" y="172"/>
<rect fill="rgba(0, 0, 0, 1)" height="5" width="5" x="62" y="172"/>
<rect fill="rgba(0, 0, 0, 1)" height="5" width="5" x="67" y="172"/>
<rect fill="rgba(0, 0, 0, 1)" height="5" width="5" x="77" y="172"/>
<rect fill="rgba(0, 0, 0, 1)" height="5" width="5" x="82" y="172"/>
<rect fill="rgba(0, 0, 0, 1)" height="5" width="5" x="87" y="172"/>
<rect fill="rgba(0, 0, 0, 1)" height="5" width="5" x="97" y="172"/>
<rect fill="rgba(0, 0, 0, 1)" height="5" width="5" x="102" y="172"/>
<rect fill="rgba(0, 0, 0, 1)" height="5" width="5" x="107" y="172"/>
<rect fill="rgba(0, 0, 0, 1)" height="5" width="5" x="117" y="172"/>
<rect fill="rgba(0, 0, 0, 1)" height="5" width="5" x="122" y="172"/>
<rect fill="rgba(0, 0, 0, 1)" height="5" width="5" x="132" y="172"/>
<rect fill="rgba(0, 0, 0, 1)" height="5" width="5" x="157" y="172"/>
<rect fill="rgba(0, 0, 0, 1)" height="5" width="5" x="162" y="172"/>
<rect fill="rgba(0, 0, 0, 1)" height="5" width="5" x="172" y="172"/>
<rect fill="rgba(0, 0, 0, 1)" height="5" width="5" x="182" y="172"/>
<rect fill="rgba(0, 0, 0, 1)" height="5" width="5" x="7" y="177"/>
<rect fill="rgba(0, 0, 0, 1)" height="5" width="5" x="17" y="177"/>
<rect fill="rgba(0, 0, 0, 1)" height="5" width="5" x="22" y="177"/>
<rect fill="rgba(0, 0, 0, 1)" height="5" width="5" x="27" y="177"/>
<rect fill="rgba(0, 0, 0, 1)" height="5" width="5" x="37" y="177"/>
<rect fill="rgba(0, 0, 0, 1)" height="5" width="5" x="52" y="177"/>
<rect fill="rgba(0, 0, 0, 1)" height="5" width="5" x="57" y="177"/>
<rect fill="rgba(0, 0, 0, 1)" height="5" width="5" x="67" y="177"/>
<rect fill="rgba(0, 0, 0, 1)" height="5" width="5" x="87" y="177"/>
<rect fill="rgba(0, 0, 0, 1)" height="5" width="5" x="97" y="177"/>
<rect fill="rgba(0, 0, 0, 1)" height="5" width="5" x="102" y="177"/>
<rect fill="rgba(0, 0, 0, 1)" height="5" width="5" x="112" y="177"/>
<rect fill="rgba(0, 0, 0, 1)" height="5" width="5" x="117" y="177"/>
<rect fill="rgba(0, 0, 0, 1)" height="5" width="5" x="132" y="177"/>
<rect fill="rgba(0, 0, 0, 1)" height="5" width="5" x="137" y="177"/>
<rect fill="rgba(0, 0, 0, 1)" height="5" width="5" x="157" y="177"/>
<rect fill="rgba(0, 0, 0, 1)" height="5" width="5" x="172" y="177"/>
<rect fill="rgba(0, 0, 0, 1)" height="5" width="5" x="187" y="177"/>
<rect fill="rgba(0, 0, 0, 1)" height="5" width="5" x="7" y="182"/>
<rect fill="rgba(0, 0, 0, 1)" height="5" width="5" x="37" y="182"/>
<rect fill="rgba(0, 0, 0, 1)" height="5" width="5" x="52" y="182"/>
<rect fill="rgba(0, 0, 0, 1)" height="5" width="5" x="57" y="182"/>
<rect fill="rgba(0, 0, 0, 1)" height="5" width="5" x="62" y="182"/>
<rect fill="rgba(0, 0, 0, 1)" height="5" width="5" x="67" y="182"/>
<rect fill="rgba(0, 0, 0, 1)" height="5" width="5" x="72" y="182"/>
<rect fill="rgba(0, 0, 0, 1)" height="5" width="5" x="77" y="182"/>
<rect fill="rgba(0, 0, 0, 1)" height="5" width="5" x="82" y="182"/>
<rect fill="rgba(0, 0, 0, 1)" height="5" width="5" x="87" y="182"/>
<rect fill="rgba(0, 0, 0, 1)" height="5" width="5" x="92" y="182"/>
<rect fill="rgba(0, 0, 0, 1)" height="5" width="5" x="97" y="182"/>
<rect fill="rgba(0, 0, 0, 1)" height="5" width="5" x="112" y="182"/>
<rect fill="rgba(0, 0, 0, 1)" height="5" width="5" x="117" y="182"/>
<rect fill="rgba(0, 0, 0, 1)" height="5" width="5" x="132" y="182"/>
<rect fill="rgba(0, 0, 0, 1)" height="5" width="5" x="142" y="182"/>
<rect fill="rgba(0, 0, 0, 1)" height="5" width="5" x="152" y="182"/>
<rect fill="rgba(0, 0, 0, 1)" height="5" width="5" x="157" y="182"/>
<rect fill="rgba(0, 0, 0, 1)" height="5" width="5" x="162" y="182"/>
<rect fill="rgba(0, 0, 0, 1)" height="5" width="5" x="172" y="182"/>
<rect fill="rgba(0, 0, 0, 1)" height="5" width="5" x="182" y="182"/>
<rect fill="rgba(0, 0, 0, 1)" height="5" width="5" x="187" y="182"/>
<rect fill="rgba(0, 0, 0, 1)" height="5" width="5" x="7" y="187"/>
<rect fill="rgba(0, 0, 0, 1)" height="5" width="5" x="12" y="187"/>
<rect fill="rgba(0, 0, 0, 1)" height="5" width="5" x="17" y="187"/>
<rect fill="rgba(0, 0, 0, 1)" height="5" width="5" x="22" y="187"/>
<rect fill="rgba(0, 0, 0, 1)" height="5" width="5" x="27" y="187"/>
<rect fill="rgba(0, 0, 0, 1)" height="5" width="5" x="32" y="187"/>
<rect fill="rgba(0, 0, 0, 1)" height="5" width="5" x="37" y="187"/>
<rect fill="rgba(0, 0, 0, 1)" height="5" width="5" x="52" y="187"/>
<rect fill="rgba(0, 0, 0, 1)" height="5" width="5" x="62" y="187"/>
<rect fill="rgba(0, 0, 0, 1)" height="5" width="5" x="82" y="187"/>
<rect fill="rgba(0, 0, 0, 1)" height="5" width="5" x="87" y="187"/>
<rect fill="rgba(0, 0, 0, 1)" height="5" width="5" x="102" y="187"/>
<rect fill="rgba(0, 0, 0, 1)" height="5" width="5" x="137" y="187"/>
<rect fill="rgba(0, 0, 0, 1)" height="5" width="5" x="142" y="187"/>
<rect fill="rgba(0, 0, 0, 1)" height="5" width="5" x="162" y="187"/>
<rect fill="rgba(0, 0, 0, 1)" height="5" width="5" x="172" y="187"/>
<rect fill="rgba(0, 0, 0, 1)" height="5" width="5" x="177" y="187"/>
<rect fill="rgba(0, 0, 0, 1)" height="5" width="5" x="187" y="187"/>
</svg>