<svg height="200" viewBox="0 0 200 200" width="200" xmlns="http://www.w3.org/2000/svg">
<rect fill="rgba(255, 255, 255, 1)" height="100%" width="100%"/>
<rect fill="rgba(0, 0, 0, 1)" height="7" width="7" x="12" y="12"/>
<rect fill="rgba(0, 0, 0, 1)" height="7" width="7" x="19" y="12"/>
<rect fill="rgba(0, 0, 0, 1)" height="7" width="7" x="26" y="12"/>
<rect fill="rgba(0, 0, 0, 1)" height="7" width="7" x="33" y="12"/>
<rect fill="rgba(0, 0, 0, 1)" height="7" width="7" x="40" y="12"/>
<rect fill="rgba(0, 0, 0, 1)" height="7" width="7" x="47" y="12"/>
<rect fill="rgba(0, 0, 0, 1)" height="7" width="7" x="54" y="12"/>
<rect fill="rgba(0, 0, 0, 1)" height="7" width="7" x="68" y="12"/>
<rect fill="rgba(0, 0, 0, 1)" height="7" width="7" x="89" y="12"/>
<rect fill="rgba(0, 0, 0, 1)" height="7" width="7" x="103" y="12"/>
<rect fill="rgba(0, 0, 0, 1)" height="7" width="7" x="124" y="12"/>
<rect fill="rgba(0, 0, 0, 1)" height="7" width="7" x="138" y="12"/>
<rect fill="rgba(0, 0, 0, 1)" height="7" width="7" x="145" y="12"/>
<rect fill="rgba(0, 0, 0, 1)" height="7" width="7" x="152" y="12"/>
<rect fill="rgba(0, 0, 0, 1)" height="7" width="7" x="159" y="12"/>
<rect fill="rgba(0, 0, 0, 1)" height="7" width="7" x="166" y="12"/>
<rect fill="rgba(0, 0, 0, 1)" height="7" width="7" x="173" y="12"/>
<rect fill="rgba(0, 0, 0, 1)" height="7" width="7" x="180" y="12"/>
<rect fill="rgba(0, 0, 0, 1)" height="7" width="7" x="12" y="19"/>
<rect fill="rgba(0, 0, 0, 1)" height="7" width="7" x="54" y="19"/>
<rect fill="rgba(0, 0, 0, 1)" height="7" width="7" x="68" y="19"/>
<rect fill="rgba(0, 0, 0, 1)" height="7" width="7" x="82" y="19"/>
<rect fill="rgba(0, 0, 0, 1)" height="7" width="7" x="96" y="19"/>
<rect fill="rgba(0, 0, 0, 1)" height="7" width="7" x="110" y="19"/>
<rect fill="rgba(0, 0, 0, 1)" height="7" width="7" x="124" y="19"/>
<rect fill="rgba(0, 0, 0, 1)" height="7" width="7" x="138" y="19"/>
<rect fill="rgba(0, 0, 0, 1)" height="7" width="7" x="180" y="19"/>
<rect fill="rgba(0, 0, 0, 1)" height="7" width="7" x="12" y="26"/>
<rect fill="rgba(0, 0, 0, 1)" height="7" width="7" x="26" y="26"/>
<rect fill="rgba(0, 0, 0, 1)" height="7" width="7" x="33" y="26"/>
<rect fill="rgba(0, 0, 0, 1)" height="7" width="7" x="40" y="26"/>
<rect fill="rgba(0, 0, 0, 1)" height="7" width="7" x="54" y="26"/>
<rect fill="rgba(0, 0, 0, 1)" height="7" width="7" x="68" y="26"/>
<rect fill="rgba(0, 0, 0, 1)" height="7" width="7" x="82" y="26"/>
<rect fill="rgba(0, 0, 0, 1)" height="7" width="7" x="89" y="26"/>
<rect fill="rgba(0, 0, 0, 1)" height="7" width="7" x="96" y="26"/>
<rect fill="rgba(0, 0, 0, 1)" height="7" width="7" x="110" y="26"/>
<rect fill="rgba(0, 0, 0, 1)" height="7" width="7" x="124" y="26"/>
<rect fill="rgba(0, 0, 0, 1)" height="7" width="7" x="138" y="26"/>
<rect fill="rgba(0, 0, 0, 1)" height="7" width="7" x="152" y="26"/>
<rect fill="rgba(0, 0, 0, 1)" height="7" width="7" x="159" y="26"/>
<rect fill="rgba(0, 0, 0, 1)" height="7" width="7" x="166" y="26"/>
<rect fill="rgba(0, 0, 0, 1)" height="7" width="7" x="180" y="26"/>
<rect fill="rgba(0, 0, 0, 1)" height="7" width="7" x="12" y="33"/>
<rect fill="rgba(0, 0, 0, 1)" height="7" width="7" x="26" y="33"/>
<rect fill="rgba(0, 0, 0, 1)" height="7" width="7" x="33" y="33"/>
<rect fill="rgba(0, 0, 0, 1)" height="7" width="7" x="40" y="33"/>
<rect fill="rgba(0, 0, 0, 1)" height="7" width="7" x="54" y="33"/>
<rect fill="rgba(0, 0, 0, 1)" height="7" width="7" x="75" y="33"/>
<rect fill="rgba(0, 0, 0, 1)" height="7" width="7" x="82" y="33"/>
<rect fill="rgba(0, 0, 0, 1)" height="7" width="7" x="89" y="33"/>
<rect fill="rgba(0, 0, 0, 1)" height="7" width="7" x="103" y="33"/>
<rect fill="rgba(0, 0, 0, 1)" height="7" width="7" x="117" y="33"/>
<rect fill="rgba(0, 0, 0, 1)" height="7" width="7" x="138" y="33"/>
<rect fill="rgba(0, 0, 0, 1)" height="7" width="7" x="152" y="33"/>
<rect fill="rgba(0, 0, 0, 1)" height="7" width="7" x="159" y="33"/>
<rect fill="rgba(0, 0, 0, 1)" height="7" width="7" x="166" y="33"/>
<rect fill="rgba(0, 0, 0, 1)" height="7" width="7" x="180" y="33"/>
<rect fill="rgba(0, 0, 0, 1)" height="7" width="7" x="12" y="40"/>
<rect fill="rgba(0, 0, 0, 1)" height="7" width="7" x="26" y="40"/>
<rect fill="rgba(0, 0, 0, 1)" height="7" width="7" x="33" y="40"/>
<rect fill="rgba(0, 0, 0, 1)" height="7" width="7" x="40" y="40"/>
<rect fill="rgba(0, 0, 0, 1)" height="7" width="7" x="54" y="40"/>
<rect fill="rgba(0, 0, 0, 1)" height="7" width="7" x="75" y="40"/>
<rect fill="rgba(0, 0, 0, 1)" height="7" width="7" x="89" y="40"/>
<rect fill="rgba(0, 0, 0, 1)" height="7" width="7" x="110" y="40"/>
<rect fill="rgba(0, 0, 0, 1)" height="7" width="7" x="117" y="40"/>
<rect fill="rgba(0, 0, 0, 1)" height="7" width="7" x="124" y="40"/>
<rect fill="rgba(0, 0, 0, 1)" height="7" width="7" x="138" y="40"/>
<rect fill="rgba(0, 0, 0, 1)" height="7" width="7" x="152" y="40"/>
<rect fill="rgba(0, 0, 0, 1)" height="7" width="7" x="159" y="40"/>
<rect fill="rgba(0, 0, 0, 1)" height="7" width="7" x="166" y="40"/>
<rect fill="rgba(0, 0, 0, 1)" height="7" width="7" x="180" y="40"/>
<rect fill="rgba(0, 0, 0, 1)" height="7" width="7" x="12" y="47"/>
<rect fill="rgba(0, 0, 0, 1)" height="7" width="7" x="54" y="47"/>
<rect fill="rgba(0, 0, 0, 1)" height="7" width="7" x="68" y="47"/>
<rect fill="rgba(0, 0, 0, 1)" height="7" width="7" x="82" y="47"/>
<rect fill="rgba(0, 0, 0, 1)" height="7" width="7" x="89" y="47"/>
<rect fill="rgba(0, 0, 0, 1)" height="7" width="7" x="96" y="47"/>
<rect fill="rgba(0, 0, 0, 1)" height="7" width="7" x="103" y="47"/>
<rect fill="rgba(0, 0, 0, 1)" height="7" width="7" x="138" y="47"/>
<rect fill="rgba(0, 0, 0, 1)" height="7" width="7" x="180" y="47"/>
<rect fill="rgba(0, 0, 0, 1)" height="7" width="7" x="12" y="54"/>
<rect fill="rgba(0, 0, 0, 1)" height="7" width="7" x="19" y="54"/>
<rect fill="rgba(0, 0, 0, 1)" height="7" width="7" x="26" y="54"/>
<rect fill="rgba(0, 0, 0, 1)" height="7" width="7" x="33" y="54"/>
<rect fill="rgba(0, 0, 0, 1)" height="7" width="7" x="40" y="54"/>
<rect fill="rgba(0, 0, 0, 1)" height="7" width="7" x="47" y="54"/>
<rect fill="rgba(0, 0, 0, 1)" height="7" width="7" x="54" y="54"/>
<rect fill="rgba(0, 0, 0, 1)" height="7" width="7" x="68" y="54"/>
<rect fill="rgba(0, 0, 0, 1)" height="7" width="7" x="82" y="54"/>
<rect fill="rgba(0, 0, 0, 1)" height="7" width="7" x="96" y="54"/>
<rect fill="rgba(0, 0, 0, 1)" height="7" width="7" x="110" y="54"/>
<rect fill="rgba(0, 0, 0, 1)" height="7" width="7" x="124" y="54"/>
<rect fill="rgba(0, 0, 0, 1)" height="7" width="7" x="138" y="54"/>
<rect fill="rgba(0, 0, 0, 1)" height="7" width="7" x="145" y="54"/>
<rect fill="rgba(0, 0, 0, 1)" height="7" width="7" x="152" y="54"/>
<rect fill="rgba(0, 0, 0, 1)" height="7" width="7" x="159" y="54"/>
<rect fill="rgba(0, 0, 0, 1)" height="7" width="7" x="166" y="54"/>
<rect fill="rgba(0, 0, 0, 1)" height="7" width="7" x="173" y="54"/>
<rect fill="rgba(0, 0, 0, 1)" height="7" width="7" x="180" y="54"/>
<rect fill="rgba(0, 0, 0, 1)" height="7" width="7" x="68" y="61"/>
<rect fill="rgba(0, 0, 0, 1)" height="7" width="7" x="89" y="61"/>
<rect fill="rgba(0, 0, 0, 1)" height="7" width="7" x="103" y="61"/>
<rect fill="rgba(0, 0, 0, 1)" height="7" width="7" x="110" y="61"/>
<rect fill="rgba(0, 0, 0, 1)" height="7" width="7" x="124" y="61"/>
<rect fill="rgba(0, 0, 0, 1)" height="7" width="7" x="26" y="68"/>
<rect fill="rgba(0, 0, 0, 1)" height="7" width="7" x="33" y="68"/>
<rect fill="rgba(0, 0, 0, 1)" height="7" width="7" x="40" y="68"/>
<rect fill="rgba(0, 0, 0, 1)" height="7" width="7" x="54" y="68"/>
<rect fill="rgba(0, 0, 0, 1)" height="7" width="7" x="68" y="68"/>
<rect fill="rgba(0, 0, 0, 1)" height="7" width="7" x="75" y="68"/>
<rect fill="rgba(0, 0, 0, 1)" height="7" width="7" x="110" y="68"/>
<rect fill="rgba(0, 0, 0, 1)" height="7" width="7" x="117" y="68"/>
<rect fill="rgba(0, 0, 0, 1)" height="7" width="7" x="124" y="68"/>
<rect fill="rgba(0, 0, 0, 1)" height="7" width="7" x="131" y="68"/>
<rect fill="rgba(0, 0, 0, 1)" height="7" width="7" x="138" y="68"/>
<rect fill="rgba(0, 0, 0, 1)" height="7" width="7" x="145" y="68"/>
<rect fill="rgba(0, 0, 0, 1)" height="7" width="7" x="166" y="68"/>
<rect fill="rgba(0, 0, 0, 1)" height="7" width="7" x="173" y="68"/>
<rect fill="rgba(0, 0, 0, 1)" height="7" width="7" x="180" y="68"/>
<rect fill="rgba(0, 0, 0, 1)" height="7" width="7" x="12" y="75"/>
<rect fill="rgba(0, 0, 0, 1)" height="7" width="7" x="19" y="75"/>
<rect fill="rgba(0, 0, 0, 1)" height="7" width="7" x="40" y="75"/>
<rect fill="rgba(0, 0, 0, 1)" height="7" width="7" x="61" y="75"/>
<rect fill="rgba(0, 0, 0, 1)" height="7" width="7" x="82" y="75"/>
<rect fill="rgba(0, 0, 0, 1)" height="7" width="7" x="89" y="75"/>
<rect fill="rgba(0, 0, 0, 1)" height="7" width="7" x="103" y="75"/>
<rect fill="rgba(0, 0, 0, 1)" height="7" width="7" x="117" y="75"/>
<rect fill="rgba(0, 0, 0, 1)" height="7" width="7" x="145" y="75"/>
<rect fill="rgba(0, 0, 0, 1)" height="7" width="7" x="166" y="75"/>
<rect fill="rgba(0, 0, 0, 1)" height="7" width="7" x="26" y="82"/>
<rect fill="rgba(0, 0, 0, 1)" height="7" width="7" x="33" y="82"/>
<rect fill="rgba(0, 0, 0, 1)" height="7" width="7" x="40" y="82"/>
<rect fill="rgba(0, 0, 0, 1)" height="7" width="7" x="54" y="82"/>
<rect fill="rgba(0, 0, 0, 1)" height="7" width="7" x="68" y="82"/>
<rect fill="rgba(0, 0, 0, 1)" height="7" width="7" x="82" y="82"/>
<rect fill="rgba(0, 0, 0, 1)" height="7" width="7" x="89" y="82"/>
<rect fill="rgba(0, 0, 0, 1)" height="7" width="7" x="96" y="82"/>
<rect fill="rgba(0, 0, 0, 1)" height="7" width="7" x="103" y="82"/>
<rect fill="rgba(0, 0, 0, 1)" height="7" width="7" x="117" y="82"/>
<rect fill="rgba(0, 0, 0, 1)" height="7" width="7" x="131" y="82"/>
<rect fill="rgba(0, 0, 0, 1)" height="7" width="7" x="152" y="82"/>
<rect fill="rgba(0, 0, 0, 1)" height="7" width="7" x="159" y="82"/>
<rect fill="rgba(0, 0, 0, 1)" height="7" width="7" x="173" y="82"/>
<rect fill="rgba(0, 0, 0, 1)" height="7" width="7" x="180" y="82"/>
<rect fill="rgba(0, 0, 0, 1)" height="7" width="7" x="19" y="89"/>
<rect fill="rgba(0, 0, 0, 1)" height="7" width="7" x="26" y="89"/>
<rect fill="rgba(0, 0, 0, 1)" height="7" width="7" x="33" y="89"/>
<rect fill="rgba(0, 0, 0, 1)" height="7" width="7" x="40" y="89"/>
<rect fill="rgba(0, 0, 0, 1)" height="7" width="7" x="61" y="89"/>
<rect fill="rgba(0, 0, 0, 1)" height="7" width="7" x="68" y="89"/>
<rect fill="rgba(0, 0, 0, 1)" height="7" width="7" x="82" y="89"/>
<rect fill="rgba(0, 0, 0, 1)" height="7" width="7" x="96" y="89"/>
<rect fill="rgba(0, 0, 0, 1)" height="7" width="7" x="103" y="89"/>
<rect fill="rgba(0, 0, 0, 1)" height="7" width="7" x="110" y="89"/>
<rect fill="rgba(0, 0, 0, 1)" height="7" width="7" x="138" y="89"/>
<rect fill="rgba(0, 0, 0, 1)" height="7" width="7" x="173" y="89"/>
<rect fill="rgba(0, 0, 0, 1)" height="7" width="7" x="180" y="89"/>
<rect fill="rgba(0, 0, 0, 1)" height="7" width="7" x="12" y="96"/>
<rect fill="rgba(0, 0, 0, 1)" height="7" width="7" x="33" y="96"/>
<rect fill="rgba(0, 0, 0, 1)" height="7" width="7" x="54" y="96"/>
<rect fill="rgba(0, 0, 0, 1)" height="7" width="7" x="61" y="96"/>
<rect fill="rgba(0, 0, 0, 1)" height="7" width="7" x="75" y="96"/>
<rect fill="rgba(0, 0, 0, 1)" height="7" width="7" x="110" y="96"/>
<rect fill="rgba(0, 0, 0, 1)" height="7" width="7" x="117" y="96"/>
<rect fill="rgba(0, 0, 0, 1)" height="7" width="7" x="131" y="96"/>
<rect fill="rgba(0, 0, 0, 1)" height="7" width="7" x="138" y="96"/>
<rect fill="rgba(0, 0, 0, 1)" height="7" width="7" x="145" y="96"/>
<rect fill="rgba(0, 0, 0, 1)" height="7" width="7" x="152" y="96"/>
<rect fill="rgba(0, 0, 0, 1)" height="7" width="7" x="159" y="96"/>
<rect fill="rgba(0, 0, 0, 1)" height="7" width="7" x="166" y="96"/>
<rect fill="rgba(0, 0, 0, 1)" height="7" width="7" x="173" y="96"/>
<rect fill="rgba(0, 0, 0, 1)" height="7" width="7" x="180" y="96"/>
<rect fill="rgba(0, 0, 0, 1)" height="7" width="7" x="12" y="103"/>
<rect fill="rgba(0, 0, 0, 1)" height="7" width="7" x="26" y="103"/>
<rect fill="rgba(0, 0, 0, 1)" height="7" width="7" x="40" y="103"/>
<rect fill="rgba(0, 0, 0, 1)" height="7" width="7" x="61" y="103"/>
<rect fill="rgba(0, 0, 0, 1)" height="7" width="7" x="68" y="103"/>
<rect fill="rgba(0, 0, 0, 1)" height="7" width="7" x="75" y="103"/>
<rect fill="rgba(0, 0, 0, 1)" height="7" width="7" x="82" y="103"/>
<rect fill="rgba(0, 0, 0, 1)" height="7" width="7" x="96" y="103"/>
<rect fill="rgba(0, 0, 0, 1)" height="7" width="7" x="117" y="103"/>
<rect fill="rgba(0, 0, 0, 1)" height="7" width="7" x="124" y="103"/>
<rect fill="rgba(0, 0, 0, 1)" height="7" width="7" x="145" y="103"/>
<rect fill="rgba(0, 0, 0, 1)" height="7" width="7" x="166" y="103"/>
<rect fill="rgba(0, 0, 0, 1)" height="7" width="7" x="12" y="110"/>
<rect fill="rgba(0, 0, 0, 1)" height="7" width="7" x="26" y="110"/>
<rect fill="rgba(0, 0, 0, 1)" height="7" width="7" x="54" y="110"/>
<rect fill="rgba(0, 0, 0, 1)" height="7" width="7" x="61" y="110"/>
<rect fill="rgba(0, 0, 0, 1)" height="7" width="7" x="82" y="110"/>
<rect fill="rgba(0, 0, 0, 1)" height="7" width="7" x="96" y="110"/>
<rect fill="rgba(0, 0, 0, 1)" height="7" width="7" x="110" y="110"/>
<rect fill="rgba(0, 0, 0, 1)" height="7" width="7" x="131" y="110"/>
<rect fill="rgba(0, 0, 0, 1)" height="7" width="7" x="138" y="110"/>
<rect fill="rgba(0, 0, 0, 1)" height="7" width="7" x="145" y="110"/>
<rect fill="rgba(0, 0, 0, 1)" height="7" width="7" x="152" y="110"/>
<rect fill="rgba(0, 0, 0, 1)" height="7" width="7" x="159" y="110"/>
<rect fill="rgba(0, 0, 0, 1)" height="7" width="7" x="173" y="110"/>
<rect fill="rgba(0, 0, 0, 1)" height="7" width="7" x="180" y="110"/>
<rect fill="rgba(0, 0, 0, 1)" height="7" width="7" x="12" y="117"/>
<rect fill="rgba(0, 0, 0, 1)" height="7" width="7" x="33" y="117"/>
<rect fill="rgba(0, 0, 0, 1)" height="7" width="7" x="75" y="117"/>
<rect fill="rgba(0, 0, 0, 1)" height="7" width="7" x="96" y="117"/>
<rect fill="rgba(0, 0, 0, 1)" height="7" width="7" x="103" y="117"/>
<rect fill="rgba(0, 0, 0, 1)" height="7" width="7" x="124" y="117"/>
<rect fill="rgba(0, 0, 0, 1)" height="7" width="7" x="138" y="117"/>
<rect fill="rgba(0, 0, 0, 1)" height="7" width="7" x="145" y="117"/>
<rect fill="rgba(0, 0, 0, 1)" height="7" width="7" x="152" y="117"/>
<rect fill="rgba(0, 0, 0, 1)" height="7" width="7" x="180" y="117"/>
<rect fill="rgba(0, 0, 0, 1)" height="7" width="7" x="12" y="124"/>
<rect fill="rgba(0, 0, 0, 1)" height="7" width="7" x="33" y="124"/>
<rect fill="rgba(0, 0, 0, 1)" height="7" width="7" x="40" y="124"/>
<rect fill="rgba(0, 0, 0, 1)" height="7" width="7" x="47" y="124"/>
<rect fill="rgba(0, 0, 0, 1)" height="7" width="7" x="54" y="124"/>
<rect fill="rgba(0, 0, 0, 1)" height="7" width="7" x="61" y="124"/>
<rect fill="rgba(0, 0, 0, 1)" height="7" width="7" x="82" y="124"/>
<rect fill="rgba(0, 0, 0, 1)" height="7" width="7" x="96" y="124"/>
<rect fill="rgba(0, 0, 0, 1)" height="7" width="7" x="124" y="124"/>
<rect fill="rgba(0, 0, 0, 1)" height="7" width="7" x="131" y="124"/>
<rect fill="rgba(0, 0, 0, 1)" height="7" width="7" x="138" y="124"/>
<rect fill="rgba(0, 0, 0, 1)" height="7" width="7" x="145" y="124"/>
<rect fill="rgba(0, 0, 0, 1)" height="7" width="7" x="152" y="124"/>
<rect fill="rgba(0, 0, 0, 1)" height="7" width="7" x="159" y="124"/>
<rect fill="rgba(0, 0, 0, 1)" height="7" width="7" x="166" y="124"/>
<rect fill="rgba(0, 0, 0, 1)" height="7" width="7" x="68" y="131"/>
<rect fill="rgba(0, 0, 0, 1)" height="7" width="7" x="124" y="131"/>
<rect fill="rgba(0, 0, 0, 1)" height="7" width="7" x="152" y="131"/>
<rect fill="rgba(0, 0, 0, 1)" height="7" width="7" x="166" y="131"/>
<rect fill="rgba(0, 0, 0, 1)" height="7" width="7" x="180" y="131"/>
<rect fill="rgba(0, 0, 0, 1)" height="7" width="7" x="12" y="138"/>
<rect fill="rgba(0, 0, 0, 1)" height="7" width="7" x="19" y="138"/>
<rect fill="rgba(0, 0, 0, 1)" height="7" width="7" x="26" y="138"/>
<rect fill="rgba(0, 0, 0, 1)" height="7" width="7" x="33" y="138"/>
<rect fill="rgba(0, 0, 0, 1)" height="7" width="7" x="40" y="138"/>
<rect fill="rgba(0, 0, 0, 1)" height="7" width="7" x="47" y="138"/>
<rect fill="rgba(0, 0, 0, 1)" height="7" width="7" x="54" y="138"/>
<rect fill="rgba(0, 0, 0, 1)" height="7" width="7" x="75" y="138"/>
<rect fill="rgba(0, 0, 0, 1)" height="7" width="7" x="82" y="138"/>
<rect fill="rgba(0, 0, 0, 1)" height="7" width="7" x="103" y="138"/>
<rect fill="rgba(0, 0, 0, 1)" height="7" width="7" x="117" y="138"/>
<rect fill="rgba(0, 0, 0, 1)" height="7" width="7" x="124" y="138"/>
<rect fill="rgba(0, 0, 0, 1)" height="7" width="7" x="138" y="138"/>
<rect fill="rgba(0, 0, 0, 1)" height="7" width="7" x="152" y="138"/>
<rect fill="rgba(0, 0, 0, 1)" height="7" width="7" x="166" y="138"/>
<rect fill="rgba(0, 0, 0, 1)" height="7" width="7" x="173" y="138"/>
<rect fill="rgba(0, 0, 0, 1)" height="7" width="7" x="180" y="138"/>
<rect fill="rgba(0, 0, 0, 1)" height="7" width="7" x="12" y="145"/>
<rect fill="rgba(0, 0, 0, 1)" height="7" width="7" x="54" y="145"/>
<rect fill="rgba(0, 0, 0, 1)" height="7" width="7" x="82" y="145"/>
<rect fill="rgba(0, 0, 0, 1)" height="7" width="7" x="96" y="145"/>
<rect fill="rgba(0, 0, 0, 1)" height="7" width="7" x="103" y="145"/>
<rect fill="rgba(0, 0, 0, 1)" height="7" width="7" x="117" y="145"/>
<rect fill="rgba(0, 0, 0, 1)" height="7" width="7" x="124" y="145"/>
<rect fill="rgba(0, 0, 0, 1)" height="7" width="7" x="152" y="145"/>
<rect fill="rgba(0, 0, 0, 1)" height="7" width="7" x="159" y="145"/>
<rect fill="rgba(0, 0, 0, 1)" height="7" width="7" x="173" y="145"/>
<rect fill="rgba(0, 0, 0, 1)" height="7" width="7" x="12" y="152"/>
<rect fill="rgba(0, 0, 0, 1)" height="7" width="7" x="26" y="152"/>
<rect fill="rgba(0, 0, 0, 1)" height="7" width="7" x="33" y="152"/>
<rect fill="rgba(0, 0, 0, 1)" height="7" width="7" x="40" y="152"/>
<rect fill="rgba(0, 0, 0, 1)" height="7" width="7" x="54" y="152"/>
<rect fill="rgba(0, 0, 0, 1)" height="7" width="7" x="68" y="152"/>
<rect fill="rgba(0, 0, 0, 1)" height="7" width="7" x="82" y="152"/>
<rect fill="rgba(0, 0, 0, 1)" height="7" width="7" x="96" y="152"/>
<rect fill="rgba(0, 0, 0, 1)" height="7" width="7" x="103" y="152"/>
<rect fill="rgba(0, 0, 0, 1)" height="7" width="7" x="117" y="152"/>
<rect fill="rgba(0, 0, 0, 1)" height="7" width="7" x="124" y="152"/>
<rect fill="rgba(0, 0, 0, 1)" height="7" width="7" x="131" y="152"/>
<rect fill="rgba(0, 0, 0, 1)" height="7" width="7" x="138" y="152"/>
<rect fill="rgba(0, 0, 0, 1)" height="7" width="7" x="145" y="152"/>
<rect fill="rgba(0, 0, 0, 1)" height="7" width="7" x="152" y="152"/>
<rect fill="rgba(0, 0, 0, 1)" height="7" width="7" x="159" y="152"/>
<rect fill="rgba(0, 0, 0, 1)" height="7" width="7" x="166" y="152"/>
<rect fill="rgba(0, 0, 0, 1)" height="7" width="7" x="12" y="159"/>
<rect fill="rgba(0, 0, 0, 1)" height="7" width="7" x="26" y="159"/>
<rect fill="rgba(0, 0, 0, 1)" height="7" width="7" x="33" y="159"/>
<rect fill="rgba(0, 0, 0, 1)" height="7" width="7" x="40" y="159"/>
<rect fill="rgba(0, 0, 0, 1)" height="7" width="7" x="54" y="159"/>
<rect fill="rgba(0, 0, 0, 1)" height="7" width="7" x="68" y="159"/>
<rect fill="rgba(0, 0, 0, 1)" height="7" width="7" x="75" y="159"/>
<rect fill="rgba(0, 0, 0, 1)" height="7" width="7" x="82" y="159"/>
<rect fill="rgba(0, 0, 0, 1)" height="7" width="7" x="138" y="159"/>
<rect fill="rgba(0, 0, 0, 1)" height="7" width="7" x="152" y="159"/>
<rect fill="rgba(0, 0, 0, 1)" height="7" width="7" x="159" y="159"/>
<rect fill="rgba(0, 0, 0, 1)" height="7" width="7" x="180" y="159"/>
<rect fill="rgba(0, 0, 0, 1)" height="7" width="7" x="12" y="166"/>
<rect fill="rgba(0, 0, 0, 1)" height="7" width="7" x="26" y="166"/>
<rect fill="rgba(0, 0, 0, 1)" height="7" width="7" x="33" y="166"/>
<rect fill="rgba(0, 0, 0, 1)" height="7" width="7" x="40" y="166"/>
<rect fill="rgba(0, 0, 0, 1)" height="7" width="7" x="54" y="166"/>
<rect fill="rgba(0, 0, 0, 1)" height="7" width="7" x="68" y="166"/>
<rect fill="rgba(0, 0, 0, 1)" height="7" width="7" x="82" y="166"/>
<rect fill="rgba(0, 0, 0, 1)" height="7" width="7" x="96" y="166"/>
<rect fill="rgba(0, 0, 0, 1)" height="7" width="7" x="110" y="166"/>
<rect fill="rgba(0, 0, 0, 1)" height="7" width="7" x="117" y="166"/>
<rect fill="rgba(0, 0, 0, 1)" height="7" width="7" x="138" y="166"/>
<rect fill="rgba(0, 0, 0, 1)" height="7" width="7" x="145" y="166"/>
<rect fill="rgba(0, 0, 0, 1)" height="7" width="7" x="159" y="166"/>
<rect fill="rgba(0, 0, 0, 1)" height="7" width="7" x="180" y="166"/>
<rect fill="rgba(0, 0, 0, 1)" height="7" width="7" x="12" y="173"/>
<rect fill="rgba(0, 0, 0, 1)" height="7" width="7" x="54" y="173"/>
<rect fill="rgba(0, 0, 0, 1)" height="7" width="7" x="75" y="173"/>
<rect fill="rgba(0, 0, 0, 1)" height="7" width="7" x="96" y="173"/>
<rect fill="rgba(0, 0, 0, 1)" height="7" width="7" x="103" y="173"/>
<rect fill="rgba(0, 0, 0, 1)" height="7" width="7" x="110" y="173"/>
<rect fill="rgba(0, 0, 0, 1)" height="7" width="7" x="117" y="173"/>
<rect fill="rgba(0, 0, 0, 1)" height="7" width="7" x="131" y="173"/>
<rect fill="rgba(0, 0, 0, 1)" height="7" width="7" x="145" y="173"/>
<rect fill="rgba(0, 0, 0, 1)" height="7" width="7" x="152" y="173"/>
<rect fill="rgba(0, 0, 0, 1)" height="7" width="7" x="180" y="173"/>
<rect fill="rgba(0, 0, 0, 1)" height="7" width="7" x="12" y="180"/>
<rect fill="rgba(0, 0, 0, 1)" height="7" width="7" x="19" y="180"/>
<rect fill="rgba(0, 0, 0, 1)" height="7" width="7" x="26" y="180"/>
<rect fill="rgba(0, 0, 0, 1)" height="7" width="7" x="33" y="180"/>
<rect fill="rgba(0, 0, 0, 1)" height="7" width="7" x="40" y="180"/>
<rect fill="rgba(0, 0, 0, 1)" height="7" width="7" x="47" y="180"/>
<rect fill="rgba(0, 0, 0, 1)" height="7" width="7" x="54" y="180"/>
<rect fill="rgba(0, 0, 0, 1)" height="7" width="7" x="75" y="180"/>
<rect fill="rgba(0, 0, 0, 1)" height="7" width="7" x="82" y="180"/>
<rect fill="rgba(0, 0, 0, 1)" height="7" width="7" x="89" y="180"/>
<rect fill="rgba(0, 0, 0, 1)" height="7" width="7" x="96" y="180"/>
<rect fill="rgba(0, 0, 0, 1)" height="7" width="7" x="110" y="180"/>
<rect fill="rgba(0, 0, 0, 1)" height="7" width="7" x="124" y="180"/>
<rect fill="rgba(0, 0, 0, 1)" height="7" width="7" x="145" y="180"/>
<rect fill="rgba(0, 0, 0, 1)" height="7" width="7" x="166" y="180"/>
<rect fill="rgba(0, 0, 0, 1)" height="7" width="7" x="173" y="180"/>
<rect fill="rgba(0, 0, 0, 1)" height="7" width="7" x="180" y="180"/>
</svg>